<svg version="1.2" xmlns="http://www.w3.org/2000/svg" viewBox="0 0 750 500" width="750" height="500">
	<title>NotFound-svg</title>
	<style>
		.s0 { fill: #f5f5f5 } 
		.s1 { fill: #263238 } 
		.s2 { fill: #455a64 } 
		.s3 { fill: #000000 } 
		.s4 { fill: #00a7e1 } 
		.s5 { fill: #ffbf9d } 
		.s6 { fill: #ff9a6c } 
		.s7 { fill: #e0e0e0 } 
		.s8 { fill: #ffffff } 
		.s9 { fill: #ae7461 } 
		.s10 { fill: #6f4439 } 
		.s11 { fill: #f5f5f5 } 
	</style>
	<g id="freepik--background-simple--inject-7">
		<path id="Layer" class="s0" d="m694.4 168.3c-20 29.9-53.3 49.3-88.3 56.3-25 5.1-51.9 4-74.7-7.4-22.9-11.5-40.8-34.5-42.2-60.3-0.5-9.7 1.5-20 8-27.3 10.2-11.6 27.7-12 43-11.5 15.4 0.5 32.9 0.1 43.1-11.5 7.9-8.9 9.1-21.8 13.3-33 7.1-19 24.1-33.8 43.8-38q1-0.2 2-0.4 1.1-0.2 2.1-0.3 1-0.2 2.1-0.3 1-0.1 2.1-0.2c21.6-1.3 42 9.9 53.4 28.6l1.3 2.2c16 32.3 11 73.1-9 103.1z"/>
		<path id="Layer" class="s0" d="m108.2 173c-35.4 0-64-28.6-64-64 0-35.4 28.6-64 64-64 35.4 0 64 28.6 64 64 0 35.4-28.6 64-64 64z"/>
	</g>
	<g id="freepik--Floor--inject-7">
		<path id="Layer" class="s1" d="m703.5 444.4c0 0.2-147.5 0.3-329.5 0.3-182 0-329.6-0.1-329.6-0.3 0.1-0.1 147.6-0.3 329.6-0.3 182 0 329.5 0.2 329.5 0.3z"/>
	</g>
	<g id="freepik--plant-2--inject-7">
		<path id="Layer" class="s2" d="m691.1 289.3q-1.1 2.6-2.7 4.9-1.6 2.3-3.6 4.3-1.9 1.9-4.3 3.5l7.9-1.2c-1.1 4.3-2.3 8.6-4.6 12.3-2.3 3.7-6 6.9-10.3 7.5l6.4 0.6c-2.1 19.1-9.9 38.6-19.6 55.1l2.6-46.1c2.9-9 5.9-18 10.5-26.2 4.6-8.2 11-15.7 19.4-20q-0.6 2.7-1.7 5.3z"/>
		<g id="Layer" style="opacity: .3">
			<path id="Layer" class="s3" d="m691.1 289.3q-1.1 2.6-2.7 4.9-1.6 2.3-3.6 4.3-1.9 1.9-4.3 3.5l7.9-1.2c-1.1 4.3-2.3 8.6-4.6 12.3-2.3 3.7-6 6.9-10.3 7.5l6.4 0.6c-2.1 19.1-9.9 38.6-19.6 55.1l2.6-46.1c2.9-9 5.9-18 10.5-26.2 4.6-8.2 11-15.7 19.4-20q-0.6 2.7-1.7 5.3z"/>
		</g>
		<path id="Layer" class="s2" d="m658.8 387.1c0 0-21.1-25.2-20.8-49.4h8.5c0 0-9.2-6.1-8.5-9.5 0.7-3.4 1-16.3 1-16.3l7.8 1.9c0 0-5.9-2.9-6.6-7.5-0.7-4.7 1.7-26.1 1.7-26.1 0 0 9.5 10 12.4 20.2 3 10.3 10.7 22.2 8.4 53.4-2.2 31.2-3.9 33.3-3.9 33.3z"/>
		<path id="Layer" class="s2" d="m674.2 362.4c5-25.6 13.8-33.6 18.4-41.1 4.6-7.6 14.4-13.6 14.4-13.6 0 0-2.7 17.8-4.4 21.4-1.6 3.6-6.9 4.6-6.9 4.6l6.7 0.2c0 0-2.6 10.4-2.8 13.3-0.2 2.9-8.9 5.8-8.9 5.8l6.8 1.8c-5.1 19.5-28 34.7-28 34.7 0 0-0.3-1.5 4.7-27.1z"/>
		<path id="Layer" class="s1" d="m647.6 302.2q0 0.1 0.1 0.1 0 0 0 0 0 0.1 0 0.1 0 0 0 0.1l0.2 0.8q0.3 1 0.7 3c0.6 2.6 1.4 6.3 2.3 11 0.8 4.7 1.8 10.3 2.8 16.6 1 6.2 1.9 13.1 2.8 20.3 0.8 7.3 1.4 14.2 2 20.5 0.5 6.3 0.8 12 1 16.7 0.2 4.8 0.3 8.7 0.3 11.3q0 2 0 3.1v0.8q0 0 0 0.1 0 0 0 0.1 0 0 0 0 0 0.1 0 0.1 0 0 0-0.1 0 0 0 0 0-0.1 0-0.1 0-0.1 0-0.1 0-0.3 0-0.8c0-0.7-0.1-1.7-0.1-3.1-0.1-2.6-0.3-6.5-0.5-11.3-0.2-4.7-0.6-10.4-1.1-16.7-0.5-6.3-1.2-13.2-2-20.4-0.9-7.3-1.8-14.1-2.7-20.4-1-6.2-1.9-11.8-2.8-16.5-0.8-4.7-1.6-8.5-2.1-11.1q-0.3-1.9-0.6-3 0-0.5-0.1-0.8 0 0-0.1 0 0-0.1 0-0.1 0-0.1 0-0.1-0.1 0-0.1-0.1z"/>
		<path id="Layer" class="s2" d="m655.9 402.6c0 0-19.3-21.9-25.3-35.2l4.5-1.9c-3.3 0.5-6.7-0.9-9.2-3q-0.9-0.9-1.8-1.8-0.8-0.9-1.6-1.9-0.8-0.9-1.5-2-0.7-1-1.4-2.1l6-1q-2-0.5-3.9-1.5-1.9-1-3.5-2.2-1.7-1.3-3.1-2.9-1.4-1.6-2.5-3.5c7 1.2 13.5 5 18.7 9.9q1.6 1.5 3.1 3.1 1.5 1.6 2.9 3.2 1.4 1.6 2.7 3.3 1.4 1.8 2.6 3.5 0.7 0.9 1.3 1.7 0.6 0.9 1.1 1.8 0.6 0.9 1.1 1.9 0.5 0.9 0.9 1.9c3.2 6.6 8.9 20.7 8.9 28.7z"/>
		<path id="Layer" class="s1" d="m697.8 320.5c0 0 0 0.1 0 0.2q-0.2 0.2-0.3 0.6l-1.2 2.5c-1 2.1-2.5 5.2-4.3 9-3.5 7.6-8.2 18.2-12.8 30.1-4.6 12-8.3 23-10.8 31-1.3 4-2.2 7.3-2.9 9.6l-0.8 2.5-0.2 0.7q0 0 0 0.1 0 0 0 0 0 0.1-0.1 0.1 0 0 0 0 0 0 0 0 0 0 0-0.1 0 0 0 0 0-0.1 0-0.1c0-0.2 0.1-0.4 0.2-0.7q0.2-0.9 0.7-2.6c0.6-2.3 1.5-5.5 2.7-9.6 2.4-8 6-19 10.7-31 4.6-11.9 9.3-22.5 13-30.1 1.8-3.8 3.3-6.8 4.4-8.9q0.8-1.5 1.2-2.4l0.4-0.6q0-0.1 0-0.1 0 0 0-0.1 0.1 0 0.1-0.1 0 0 0 0z"/>
		<path id="Layer" class="s1" d="m657.5 412q0-0.2-0.1-0.4 0-0.2 0-0.4-0.1-0.2-0.1-0.4 0-0.2-0.1-0.4c-0.1-1-0.4-2.4-0.7-4.2q-0.7-3.5-1.7-7-1-3.4-2.2-6.7-1.3-3.4-2.8-6.6-1.5-3.2-3.3-6.3c-0.9-1.6-1.7-2.9-2.3-3.7q-0.1-0.2-0.2-0.4-0.1-0.1-0.2-0.3-0.1-0.2-0.2-0.4-0.1-0.1-0.2-0.3 0.2 0.1 0.3 0.3 0.1 0.1 0.3 0.3 0.1 0.2 0.2 0.3 0.1 0.2 0.2 0.4c0.6 0.8 1.5 2 2.4 3.6q0.9 1.5 1.8 3.1 0.8 1.6 1.6 3.2 0.8 1.6 1.5 3.3 0.7 1.6 1.3 3.3 0.6 1.7 1.2 3.4 0.5 1.7 1 3.4 0.5 1.8 0.9 3.5 0.4 1.8 0.7 3.5c0.3 1.8 0.5 3.3 0.6 4.3q0 0.2 0.1 0.4 0 0.2 0 0.4 0 0.2 0 0.4 0.1 0.2 0 0.4z"/>
		<path id="Layer" class="s4" d="m640.7 406.9h42.4v8.6h-42.4z"/>
		<path id="Layer" class="s4" d="m644.8 415.5h34.4l-4.3 29.1h-25.5l-4.6-29.1z"/>
		<path id="Layer" class="s1" d="m680.5 415.5c0 0.1-8 0.3-17.9 0.3-9.9 0-17.9-0.2-17.9-0.3 0-0.1 8-0.3 17.9-0.3 9.9 0 17.9 0.2 17.9 0.3z"/>
	</g>
	<g id="freepik--plant-1--inject-7">
		<path id="Layer" class="s1" d="m88.1 418.7c0 0-3.8-26-3.5-41.1 0.4-15 0-32.1 0-32.1h1.8c0 0-1.2 30 0.1 48.1 1.3 18 4.6 25.1 4.6 25.1h-3"/>
		<path id="Layer" class="s2" d="m89 354.3l-7-23.5c2.1-5.1 6.7-14.9 12-16.8q0.4-0.2 0.9-0.3 0.5-0.1 1-0.1 0.5 0 0.9 0.1 0.5 0.1 1 0.3 0.2 0.2 0.5 0.5 0.2 0.2 0.4 0.5 0.2 0.3 0.4 0.6 0.1 0.4 0.2 0.7c4.4 11 2.2 26.4-10.3 38z"/>
		<path id="Layer" class="s1" d="m97.3 314.9q0 0.1 0 0.1 0 0.1 0 0.1 0 0 0 0.1 0 0 0 0l-0.4 0.9q-0.5 1.1-1.2 3.2c-1 2.6-2.4 6.3-3.6 10.6-1.1 4.2-2 8-2.4 10.9-0.3 1.4-0.4 2.5-0.6 3.3q-0.1 0.6-0.1 0.9 0 0.1 0 0.1 0 0 0 0.1 0 0-0.1 0.1 0 0 0 0 0 0 0 0 0-0.1 0-0.1 0-0.1 0-0.1 0-0.1 0-0.1c0-0.2 0.1-0.5 0.1-0.9 0.1-0.8 0.3-2 0.5-3.4q0.4-2.7 1-5.5 0.6-2.7 1.4-5.4 0.7-2.7 1.6-5.4 0.9-2.6 2-5.2c0.5-1.3 1-2.4 1.3-3.1l0.4-0.9q0 0 0-0.1 0.1 0 0.1 0 0-0.1 0-0.1 0 0 0-0.1z"/>
		<path id="Layer" class="s2" d="m85.8 360q-2.4-1.4-4.3-3.3-2-1.9-3.4-4.2-1.4-2.4-2.2-5-0.8-2.7-0.8-5.4c-0.3-5.2 1.3-10.3 3.1-15.2q0.1-0.2 0.1-0.4 0.1-0.1 0.2-0.3 0.1-0.1 0.2-0.2 0.1-0.1 0.3-0.2 0.2-0.1 0.4-0.1 0.3-0.1 0.5 0 0.2 0 0.4 0.1 0.3 0.1 0.5 0.2c4.7 2.7 7.6 7.9 9.1 13.1q0.4 1.4 0.7 2.7 0.3 1.3 0.4 2.7 0.1 1.3 0.1 2.7 0 1.4-0.1 2.7-0.2 1.5-0.7 2.8-0.4 1.4-1.1 2.7-0.6 1.2-1.5 2.4-0.9 1.1-1.9 2.1"/>
		<path id="Layer" class="s1" d="m85.8 360q0 0 0-0.1 0 0 0-0.1 0 0 0 0 0-0.1 0-0.1 0-0.4 0-0.9c0-0.8 0-1.9-0.1-3.3q-0.1-1.4-0.2-2.8-0.1-1.3-0.2-2.7-0.2-1.3-0.4-2.7-0.2-1.3-0.4-2.7c-0.7-4.2-1.6-8-2.3-10.7l-0.7-3.2-0.2-0.9q0 0 0-0.1 0 0 0-0.1 0 0 0-0.1 0 0 0 0 0 0 0 0 0 0.1 0 0.1 0 0.1 0.1 0.1 0 0 0 0.1 0.1 0.3 0.2 0.8c0.2 0.8 0.5 1.9 0.9 3.2 0.7 2.8 1.6 6.5 2.3 10.8q0.3 1.3 0.5 2.7 0.1 1.3 0.3 2.7 0.1 1.4 0.2 2.7 0.1 1.4 0.2 2.8c0 1.4 0 2.5 0 3.3q0 0.5 0 0.9 0 0-0.1 0.1 0 0 0 0 0 0.1 0 0.1-0.1 0.1-0.1 0.1z"/>
		<g id="Layer" style="opacity: .3">
			<path id="Layer" class="s3" d="m85.8 360q-2.4-1.4-4.3-3.3-2-1.9-3.4-4.2-1.4-2.4-2.2-5-0.8-2.7-0.8-5.4c-0.3-5.2 1.3-10.3 3.1-15.2q0.1-0.2 0.1-0.4 0.1-0.1 0.2-0.3 0.1-0.1 0.2-0.2 0.1-0.1 0.3-0.2 0.2-0.1 0.4-0.1 0.3-0.1 0.5 0 0.2 0 0.4 0.1 0.3 0.1 0.5 0.2c4.7 2.7 7.6 7.9 9.1 13.1q0.4 1.4 0.7 2.7 0.3 1.3 0.4 2.7 0.1 1.3 0.1 2.7 0 1.4-0.1 2.7-0.2 1.5-0.7 2.8-0.4 1.4-1.1 2.7-0.6 1.2-1.5 2.4-0.9 1.1-1.9 2.1"/>
		</g>
		<path id="Layer" class="s2" d="m93.4 399.5c3-0.8 6.1 0 9.1 1q2.1 0.7 4.2 1.6 2.1 0.9 4.1 1.8 2 1 4 2.1 2 1.1 3.9 2.3c1.8 1.1 3.7 2.4 4.5 4.4-3.3-2.8-7.9-3.4-12-4.8-6.3-2.2-11.6-6.8-18-8.2"/>
		<path id="Layer" class="s2" d="m83.9 405.4c-8.1-0.1-16.6-7-24.6-7.4 8.4-2.7 20.4-0.5 24.6 7.4z"/>
		<path id="Layer" class="s2" d="m87.3 384.3q0.3-0.8 0.6-1.7 0.4-0.8 0.9-1.5 0.5-0.8 1.1-1.4 0.6-0.8 1.4-1.4 0.7-0.6 1.6-1 0.9-0.5 1.8-0.7 0.9-0.3 1.9-0.3 0.8 0 1.6 0.1 0.8 0.1 1.6 0.3 0.7 0.2 1.5 0.5 0.7 0.4 1.4 0.8 0.6 0.4 1.3 0.9 0.6 0.4 1.3 0.9 0.6 0.5 1.2 1 0.6 0.5 1.2 1.1c2.1 1.8 4.4 3.9 4.8 6.7q-1.6-0.5-3.1-1-1.6-0.5-3.1-0.9-1.6-0.5-3.2-0.8-1.6-0.4-3.2-0.7-1.6-0.3-3.2-0.4-1.7-0.1-3.3 0.1-1.6 0.1-3.2 0.4-1.6 0.3-3.2 0.8 0.1-0.9 0.3-1.8z"/>
		<path id="Layer" class="s2" d="m81.2 392.2q-3.5-2.7-7.1-5.3-3.7-2.6-7.5-4.9-3.7-2.4-7.6-4.5-3.9-2.2-8-4.1c6.7-0.1 14.4-0.5 19.5 3.8 6.4 5.5 11 10.3 10.7 15z"/>
		<g id="Layer" style="opacity: .3">
			<path id="Layer" class="s3" d="m81.2 392.2q-3.5-2.7-7.1-5.3-3.7-2.6-7.5-4.9-3.7-2.4-7.6-4.5-3.9-2.2-8-4.1c6.7-0.1 14.4-0.5 19.5 3.8 6.4 5.5 11 10.3 10.7 15z"/>
		</g>
		<path id="Layer" class="s2" d="m95.1 361.1c3.3-2.9 7.3-4.7 11.3-6.5q1-0.5 2.1-1 1.1-0.4 2.2-0.9 1.1-0.4 2.2-0.8 1.1-0.3 2.2-0.7 1.1-0.3 2.3-0.5 1.1-0.2 2.3-0.3 1.2-0.1 2.4 0 1.1 0.1 2.3 0.3c-3.8 0.6-7.1 2.6-10.2 4.8-3.1 2.3-6 4.8-9.3 6.6-2.6 1.4-5.1 3.4-7.8 4.6q-1 0.5-2 1-1 0.5-2 1.1-0.9 0.6-1.9 1.2-1 0.6-1.9 1.2c-0.3-4.3 2.6-7.2 5.8-10.1z"/>
		<path id="Layer" class="s1" d="m111 405.4q0 0-0.1 0 0 0 0 0-0.1 0-0.1 0 0-0.1-0.1-0.1l-0.7-0.3c-0.6-0.3-1.5-0.8-2.6-1.4q-0.8-0.4-1.8-0.8-1-0.5-2.1-1-0.6-0.3-1.2-0.6-0.6-0.2-1.2-0.4-0.7-0.2-1.3-0.4-0.6-0.2-1.3-0.4-0.6-0.1-1.2-0.2-0.7-0.1-1.3-0.2-0.7 0-1.4 0.1-0.6 0.1-1.2 0.2-0.3 0.1-0.6 0.1-0.3 0.1-0.5 0.2-0.3 0.1-0.6 0.2-0.3 0-0.5 0.1-0.6 0.3-1.1 0.6-0.6 0.3-1.1 0.6-0.5 0.4-0.9 0.8-0.5 0.4-0.9 0.8c-0.5 0.5-0.7 0.8-0.7 0.8l0.1-0.3q0.1 0 0.1-0.1 0.1-0.1 0.1-0.2 0.1-0.1 0.2-0.1 0-0.1 0.1-0.2 0.2-0.3 0.5-0.5 0.2-0.3 0.5-0.5 0.3-0.3 0.6-0.5 0.3-0.2 0.6-0.4 0.2-0.2 0.4-0.3 0.2-0.1 0.5-0.3 0.2-0.1 0.4-0.2 0.2-0.1 0.5-0.2 0.2-0.1 0.5-0.2 0.3-0.1 0.6-0.2 0.2-0.1 0.5-0.2 0.3 0 0.6-0.1 0.6-0.2 1.3-0.2 0.7-0.1 1.3-0.1 0.7 0 1.4 0.1 0.6 0.1 1.3 0.3 0.6 0.2 1.3 0.4 0.6 0.2 1.2 0.4 0.7 0.2 1.3 0.4 0.6 0.3 1.2 0.6 1.1 0.5 2.1 1 1 0.5 1.8 0.9 1.6 0.9 2.5 1.4l0.7 0.5q0 0 0.1 0 0 0 0 0 0.1 0.1 0.1 0.1 0.1 0 0.1 0z"/>
		<path id="Layer" class="s1" d="m77.9 401.4q0 0.1 0.1 0.1 0.1 0 0.1 0 0.1 0 0.2 0 0 0.1 0.1 0.1 0.1 0.1 0.3 0.1 0.2 0.1 0.3 0.2 0.2 0 0.4 0.1 0.1 0.1 0.3 0.2 0.5 0.2 1 0.5 0.5 0.3 1 0.7 0.5 0.3 1 0.7 0.4 0.4 0.8 0.8 0.5 0.4 0.9 0.8 0.4 0.5 0.7 1 0.4 0.4 0.7 0.9 0.3 0.5 0.6 1 0.1 0.2 0.2 0.3 0.1 0.2 0.2 0.4 0 0.1 0.1 0.3 0.1 0.2 0.2 0.3 0 0.1 0 0.1 0 0.1 0.1 0.2 0 0 0 0.1 0 0.1 0 0.1c0 0.1-0.3-0.6-1-1.7q-0.3-0.5-0.6-0.9-0.4-0.5-0.7-1-0.4-0.4-0.8-0.9-0.4-0.4-0.8-0.8-0.4-0.4-0.9-0.8-0.4-0.4-0.9-0.7-0.4-0.3-0.9-0.7-0.5-0.3-1-0.6c-1.1-0.5-1.8-0.8-1.7-0.9z"/>
		<path id="Layer" class="s1" d="m60 376.8q0 0 0.1 0 0 0 0.1 0 0 0 0.1 0.1 0 0 0 0l1 0.3 1.6 0.6c0.6 0.2 1.2 0.5 2 0.9q1.4 0.6 2.8 1.4 1.3 0.7 2.6 1.6 1.4 0.8 2.6 1.7 1.3 0.9 2.5 2 0.6 0.5 1.3 1.1 0.6 0.6 1.2 1.2 0.6 0.6 1.2 1.2 0.6 0.6 1.2 1.3 0.4 0.5 0.9 1 0.4 0.6 0.9 1.1 0.4 0.6 0.8 1.1 0.4 0.6 0.8 1.2c1 1.3 1.7 2.4 2.1 3.1l0.6 0.9q0 0 0 0.1 0.1 0 0.1 0 0 0.1 0 0.1 0 0 0.1 0.1l-0.3-0.3q-0.2-0.3-0.6-0.8c-0.5-0.7-1.2-1.8-2.1-3.1-1-1.3-2.1-2.8-3.5-4.3q-0.6-0.7-1.2-1.3-0.6-0.6-1.2-1.2-0.6-0.6-1.2-1.2-0.7-0.6-1.3-1.1-1.2-1-2.5-2-1.2-0.9-2.5-1.7-1.3-0.9-2.7-1.6-1.3-0.8-2.7-1.4c-0.7-0.4-1.4-0.7-2-1l-1.5-0.6-1-0.4z"/>
		<path id="Layer" class="s1" d="m99.1 381.6q-0.1 0-0.1 0-0.1-0.1-0.2-0.1-0.1 0-0.2 0 0 0-0.1 0l-0.7-0.2c-0.3 0-0.7 0-1 0q-1.2-0.1-2.3 0-1.1 0.2-2.1 0.5-1.1 0.4-2 1-0.9 0.6-1.7 1.5-0.2 0.2-0.5 0.4-0.2 0.3-0.4 0.5-0.2 0.3-0.4 0.5-0.2 0.3-0.3 0.6-0.2 0.2-0.3 0.5-0.2 0.2-0.3 0.5-0.1 0.2-0.3 0.5-0.1 0.3-0.2 0.5 0-0.1 0-0.1 0-0.1 0.1-0.2 0-0.1 0-0.1 0-0.1 0.1-0.2 0-0.2 0.1-0.4 0.1-0.2 0.2-0.4 0.1-0.2 0.2-0.4 0.1-0.2 0.2-0.4 0.2-0.3 0.4-0.6 0.2-0.2 0.4-0.5 0.2-0.3 0.4-0.5 0.2-0.3 0.4-0.5 0.3-0.3 0.6-0.6 0.3-0.2 0.6-0.5 0.3-0.2 0.7-0.4 0.3-0.3 0.7-0.4 0.6-0.4 1.3-0.6 0.7-0.2 1.5-0.4 0.7-0.1 1.4-0.1 0.8 0 1.5 0.1c0.4 0 0.7 0 1 0.1l0.7 0.2q0.1 0 0.2 0 0.1 0 0.1 0.1 0.1 0 0.2 0 0.1 0 0.1 0.1z"/>
		<path id="Layer" class="s1" d="m107.2 356.4l-0.3 0.2-0.9 0.5c-0.8 0.4-1.9 1-3.2 1.9-1.4 0.8-3 1.8-4.7 3q-0.7 0.4-1.4 1-0.7 0.5-1.3 1-0.7 0.6-1.3 1.1-0.6 0.6-1.2 1.2-0.3 0.3-0.6 0.7-0.3 0.3-0.6 0.6-0.3 0.4-0.5 0.7-0.2 0.4-0.5 0.8c-0.5 1-1 2-1.5 2.9q-0.3 0.6-0.6 1.3-0.3 0.6-0.5 1.2-0.3 0.7-0.6 1.3-0.3 0.7-0.5 1.3-0.2 0.5-0.3 0.9-0.2 0.4-0.3 0.9-0.1 0.4-0.3 0.9-0.1 0.5-0.2 0.9c-0.2 0.9-0.3 1.4-0.3 1.4q0-0.1 0-0.1 0-0.1 0-0.1 0-0.1 0-0.1 0-0.1 0-0.1c0-0.2 0.1-0.6 0.2-1q0.1-0.5 0.2-0.9 0.1-0.5 0.2-0.9 0.1-0.5 0.3-0.9 0.1-0.5 0.3-0.9 0.2-0.7 0.5-1.3 0.2-0.7 0.5-1.3 0.3-0.7 0.6-1.3 0.3-0.6 0.6-1.3c0.5-0.9 1-1.9 1.5-2.9q0.2-0.4 0.5-0.8 0.2-0.3 0.5-0.7 0.3-0.4 0.5-0.7 0.3-0.3 0.7-0.6 0.6-0.6 1.2-1.2 0.6-0.6 1.3-1.2 0.7-0.5 1.3-1 0.7-0.5 1.4-1c1.8-1.2 3.4-2.2 4.8-3 1.3-0.8 2.5-1.4 3.3-1.8l0.9-0.4q0-0.1 0.1-0.1 0 0 0.1 0 0 0 0.1-0.1 0 0 0 0z"/>
		<path id="Layer" class="s1" d="m84.6 380.8q0 0 0-0.1 0-0.1-0.1-0.2 0-0.1 0-0.2 0-0.1 0-0.1l-0.4-1.9q-0.3-1.5-0.6-3.1-0.4-1.5-0.9-3-0.5-1.4-1.1-2.9-0.5-1.4-1.2-2.9l-0.8-1.7q0-0.1-0.1-0.1 0-0.1 0-0.2-0.1-0.1-0.1-0.2 0 0-0.1-0.1 0.1 0 0.1 0.1 0.1 0.1 0.1 0.2 0.1 0 0.1 0.1 0.1 0.1 0.1 0.2c0.2 0.4 0.5 1 0.9 1.6q0.3 0.8 0.6 1.5 0.4 0.7 0.7 1.4 0.3 0.7 0.5 1.5 0.3 0.7 0.6 1.5 0.2 0.7 0.4 1.5 0.2 0.7 0.4 1.5 0.2 0.7 0.3 1.5 0.2 0.8 0.3 1.6 0.2 1.2 0.3 1.8 0 0.1 0 0.2 0 0.1 0 0.2 0 0.1 0 0.2 0 0.1 0 0.1z"/>
		<path id="Layer" class="s2" d="m84.1 364.7q-0.1 1.1-0.3 2.2-0.2 1-0.6 2.1-0.4 1-1 1.9l-2.3-4.8-18-26.8q3.1 0.6 6 1.9 2.8 1.3 5.4 3.2 2.5 1.8 4.5 4.2 2.1 2.4 3.6 5.2 0.5 1 1 2 0.4 1.1 0.8 2.2 0.3 1.1 0.5 2.2 0.2 1.1 0.3 2.3 0.1 1.1 0.1 2.2z"/>
		<path id="Layer" class="s4" d="m68 415.5h41.9v7.4h-41.9z"/>
		<path id="Layer" class="s4" d="m71.1 421.4h35.7l-4.3 23.1h-27.8l-3.6-23.1z"/>
		<path id="Layer" class="s1" d="m109.9 422.9c0 0.1-9.5 0.1-21.1 0.1-11.7 0-21.2 0-21.2-0.1 0-0.1 9.5-0.1 21.2-0.1 11.6 0 21.1 0 21.1 0.1z"/>
	</g>
	<g id="freepik--Texts--inject-7">
		<path id="Layer" class="s11" d="m244.6 72.4l1.4-3.3q0.6 0.5 1.3 0.9 0.8 0.4 1.5 0.6 0.8 0.3 1.5 0.4 0.8 0.1 1.6 0.1c2.5 0 3.5-0.8 3.5-2 0-3.5-10.4-1.1-10.4-8.1 0-3.2 2.5-5.9 7.6-5.9q0.8 0 1.6 0.1 0.8 0.1 1.6 0.3 0.8 0.3 1.6 0.6 0.7 0.3 1.4 0.7l-1.2 3.3q-0.6-0.3-1.2-0.6-0.6-0.3-1.2-0.5-0.7-0.1-1.3-0.2-0.7-0.1-1.3-0.2c-2.5 0-3.5 1-3.5 2.2 0 3.4 10.5 1.1 10.5 8 0 3.1-2.5 5.8-7.6 5.8q-1 0-2-0.1-1-0.1-1.9-0.4-0.9-0.3-1.8-0.7-0.9-0.4-1.7-1z"/>
		<path id="Layer" fill-rule="evenodd" class="s11" d="m261.1 67c-0.1-3 1.7-5.9 4.6-7.1 2.8-1.2 6.1-0.6 8.3 1.6 2.2 2.1 2.9 5.4 1.7 8.3-1.1 2.8-3.9 4.7-7 4.7-1 0-2-0.1-2.9-0.5-1-0.3-1.8-0.9-2.5-1.6-0.7-0.7-1.3-1.5-1.7-2.4-0.3-1-0.5-2-0.5-3zm11.1 0c0-2.4-1.5-4-3.5-4-2 0-3.5 1.6-3.5 4 0 2.5 1.5 4 3.5 4 2 0 3.5-1.5 3.5-4z"/>
		<path id="Layer" class="s11" d="m287.6 59.6l-0.1 3.9c-0.3 0-0.5 0-0.8 0-2.3 0-3.7 1.2-3.7 4v6.8h-4v-14.5h3.8v1.9q0.4-0.5 1-0.9 0.5-0.4 1.1-0.7 0.6-0.3 1.3-0.4 0.7-0.1 1.3-0.1z"/>
		<path id="Layer" class="s11" d="m298.5 59.6v3.9c-0.3 0-0.6 0-0.9 0-2.2 0-3.7 1.2-3.7 4v6.8h-4v-14.5h3.9v1.9q0.4-0.5 0.9-0.9 0.6-0.4 1.2-0.7 0.6-0.3 1.3-0.4 0.7-0.1 1.3-0.1z"/>
		<path id="Layer" class="s11" d="m315.1 59.8l-6.2 15.4c-1.3 3.5-3.3 4.5-5.7 4.5q-0.6 0-1.1-0.1-0.5 0-1-0.2-0.5-0.2-0.9-0.4-0.5-0.3-0.9-0.6l1.5-3q0.2 0.2 0.5 0.4 0.2 0.1 0.5 0.3 0.3 0.1 0.6 0.1 0.3 0.1 0.6 0.1c1.1 0 1.7-0.5 2.3-1.8v-0.1l-6-14.6h4.1l3.9 9.8 3.9-9.8z"/>
		<path id="Layer" class="s11" d="m320 71.9q0 0.3-0.1 0.7 0 0.3-0.1 0.6-0.1 0.4-0.2 0.7-0.1 0.3-0.3 0.6l-1.5 3.9h-2.5l1.1-4.3q-0.3-0.1-0.6-0.3-0.3-0.3-0.4-0.6-0.2-0.3-0.3-0.6-0.1-0.4-0.1-0.7c0-0.7 0.3-1.3 0.7-1.8 0.5-0.5 1.1-0.7 1.8-0.7 0.7 0 1.3 0.2 1.8 0.7 0.4 0.5 0.7 1.1 0.7 1.8z"/>
		<path id="Layer" fill-rule="evenodd" class="s11" d="m345.9 62.3c0 4.2-3 6.8-7.8 6.8h-3.7v5.2h-4.1v-18.8h7.8c4.8 0 7.8 2.6 7.8 6.8zm-4.2 0c0-2.1-1.3-3.3-3.9-3.3h-3.4v6.6h3.4c2.6 0 3.9-1.3 3.9-3.3z"/>
		<path id="Layer" fill-rule="evenodd" class="s11" d="m360.6 66v8.3l-3.7-0.1v-1.7c-0.8 1.3-2.2 2-4.2 2-3.3 0-5.2-1.9-5.2-4.4 0-2.5 1.7-4.4 5.9-4.4h3.2c0-1.7-1-2.8-3.2-2.8q-0.5 0-1 0.1-0.6 0.1-1.1 0.2-0.5 0.2-0.9 0.5-0.5 0.2-1 0.5l-1.4-2.8q0.7-0.5 1.4-0.8 0.7-0.4 1.5-0.6 0.7-0.2 1.5-0.3 0.8-0.1 1.6-0.1c4.2 0 6.6 2.1 6.6 6.4zm-4 3.7v-1.5h-2.7c-1.9 0-2.5 0.8-2.5 1.7 0 1 0.9 1.8 2.3 1.8q0.5 0 0.9-0.1 0.5-0.2 0.9-0.4 0.4-0.3 0.7-0.7 0.3-0.3 0.4-0.8z"/>
		<path id="Layer" fill-rule="evenodd" class="s11" d="m378.7 59.8v12c0 5.4-2.8 7.9-7.8 7.9q-0.9 0-1.8-0.1-0.9-0.1-1.7-0.4-0.9-0.2-1.7-0.6-0.8-0.4-1.6-0.9l1.6-3q0.6 0.4 1.1 0.7 0.6 0.3 1.2 0.5 0.7 0.2 1.3 0.3 0.7 0.1 1.3 0.1c2.8 0 4.1-1.3 4.1-3.9v-0.7q-0.4 0.5-0.9 0.8-0.5 0.4-1.1 0.6-0.6 0.3-1.2 0.4-0.6 0.1-1.2 0c-1.8 0-3.6-0.7-4.9-2-1.4-1.3-2.1-3.1-2.1-5 0-1.8 0.7-3.6 2.1-4.9 1.3-1.3 3.1-2.1 4.9-2.1q0.7 0 1.3 0.1 0.7 0.1 1.3 0.4 0.5 0.3 1.1 0.7 0.5 0.4 0.9 0.9v-1.8zm-4 6.8c0.1-1.5-0.8-2.8-2.1-3.4-1.4-0.6-3-0.3-4 0.7-1.1 1-1.4 2.6-0.9 4 0.6 1.3 1.9 2.2 3.4 2.2q0.7 0.1 1.4-0.2 0.7-0.2 1.2-0.7 0.5-0.5 0.8-1.2 0.3-0.7 0.2-1.4z"/>
		<path id="Layer" fill-rule="evenodd" class="s11" d="m395.9 68.2h-10.5q0.2 0.7 0.6 1.3 0.3 0.5 0.9 0.9 0.5 0.4 1.2 0.6 0.7 0.2 1.3 0.1 0.5 0.1 1 0 0.5-0.1 0.9-0.3 0.5-0.2 0.9-0.4 0.4-0.3 0.7-0.7l2.1 2.5q-0.5 0.6-1.2 1-0.6 0.5-1.4 0.8-0.7 0.3-1.5 0.4-0.8 0.1-1.6 0.1c-4.8 0-7.9-3.2-7.9-7.5q0-1.4 0.5-2.8 0.5-1.4 1.6-2.5 1-1 2.4-1.6 1.4-0.5 2.9-0.5c4 0 7.2 2.9 7.2 7.5 0 0.3-0.1 0.8-0.1 1.1zm-10.5-2.4h6.8c-0.1-0.8-0.5-1.6-1.1-2.2-0.7-0.5-1.5-0.8-2.3-0.8-0.9 0-1.7 0.3-2.3 0.8-0.6 0.6-1 1.4-1.1 2.2z"/>
		<path id="Layer" class="s11" d="m420.1 66v8.3h-4v-7.6c0-2.4-1-3.5-2.8-3.5-2 0-3.4 1.3-3.4 3.9v7.2h-4v-14.5h3.9v1.7q0.4-0.5 0.9-0.8 0.6-0.4 1.2-0.6 0.5-0.3 1.2-0.4 0.6-0.1 1.2-0.1c3.3 0 5.8 2 5.8 6.4z"/>
		<path id="Layer" fill-rule="evenodd" class="s11" d="m422.8 67c-0.1-3 1.8-5.9 4.6-7.1 2.8-1.2 6.1-0.6 8.3 1.6 2.2 2.1 2.9 5.4 1.7 8.3-1.1 2.8-3.9 4.7-7 4.7q-1.5 0.1-2.9-0.5-1.4-0.5-2.5-1.6-1.1-1-1.7-2.4-0.5-1.4-0.5-3zm11.1 0c0-2.4-1.5-4-3.5-4-2 0-3.5 1.6-3.5 4 0 2.5 1.5 4 3.5 4 2 0 3.5-1.5 3.5-4z"/>
		<path id="Layer" class="s11" d="m449.6 73.6q-0.4 0.2-0.8 0.4-0.3 0.2-0.8 0.3-0.4 0.1-0.8 0.2-0.4 0-0.9 0c-3.2 0-5.1-1.7-5.1-5.2v-5.9h-2.2v-3.2h2.1v-3.6h4v3.6h3.5v3.2h-3.5v5.9c0 1.2 0.7 1.9 1.8 1.9q0.2 0 0.4-0.1 0.2 0 0.4-0.1 0.2 0 0.4-0.1 0.2-0.1 0.4-0.3z"/>
		<path id="Layer" class="s11" d="m463.5 60.1h3.6v3.3h-3.5v10.9h-4v-10.9h-2.1v-3.3h2.1v-0.6c0-3.2 1.9-5.4 5.4-5.4q0.4 0 0.8 0.1 0.4 0 0.8 0.1 0.4 0.1 0.7 0.3 0.4 0.1 0.8 0.3l-1.1 3.1q-0.2-0.1-0.4-0.2-0.2-0.1-0.4-0.2-0.2 0-0.4-0.1-0.2 0-0.4 0c-1.2 0-1.8 0.7-1.8 2.1z"/>
		<path id="Layer" fill-rule="evenodd" class="s11" d="m467.9 67c-0.1-3 1.7-5.9 4.6-7.1 2.8-1.2 6.1-0.6 8.3 1.6 2.2 2.1 2.9 5.4 1.7 8.3-1.1 2.8-3.9 4.7-7 4.7q-1.5 0.1-2.9-0.5-1.5-0.5-2.5-1.6-1.1-1-1.7-2.4-0.6-1.4-0.5-3zm11.1 0c0-2.4-1.5-4-3.5-4-2 0-3.6 1.6-3.6 4 0 2.5 1.6 4 3.6 4 2 0 3.5-1.5 3.5-4z"/>
		<path id="Layer" class="s11" d="m499.7 59.8v14.5h-3.8v-1.7q-0.4 0.4-0.9 0.8-0.5 0.4-1 0.6-0.6 0.3-1.2 0.4-0.6 0.1-1.2 0.1c-3.5 0-5.9-2-5.9-6.5v-8.2h4v7.6c0 2.4 1 3.5 2.8 3.5 1.8 0 3.2-1.3 3.2-3.9v-7.2z"/>
		<path id="Layer" class="s11" d="m517.5 66v8.3h-4v-7.6c0-2.4-1-3.5-2.8-3.5-1.9 0-3.3 1.3-3.3 3.9v7.2h-4v-14.5h3.9v1.7q0.4-0.5 0.9-0.8 0.5-0.4 1.1-0.6 0.6-0.3 1.3-0.4 0.6-0.1 1.2-0.1c3.3 0 5.7 2 5.7 6.4z"/>
		<path id="Layer" fill-rule="evenodd" class="s11" d="m535.4 54.4v19.9h-3.8v-1.7q-0.4 0.5-0.9 0.9-0.5 0.3-1 0.6-0.6 0.2-1.2 0.3-0.6 0.1-1.2 0.1c-3.9 0-6.9-2.9-6.9-7.5 0-4.5 3-7.4 6.9-7.4q0.6 0 1.1 0.1 0.6 0.1 1.1 0.3 0.6 0.2 1 0.6 0.5 0.3 0.9 0.8v-7zm-3.9 12.7c0-2.5-1.6-4-3.5-4-2 0-3.6 1.5-3.6 4 0 2.4 1.5 4 3.6 4 2 0 3.5-1.5 3.5-4z"/>
		<path id="Layer" class="s11" d="m538.5 72c0-0.6 0.3-1.2 0.8-1.7 0.4-0.5 1-0.7 1.7-0.7 0.7 0 1.3 0.2 1.7 0.7 0.5 0.5 0.8 1.1 0.8 1.7 0 0.7-0.3 1.3-0.8 1.8-0.4 0.5-1 0.7-1.7 0.7-0.7 0-1.3-0.2-1.7-0.7-0.5-0.5-0.8-1.1-0.8-1.8zm0.1-16.5h4.8l-0.8 12.3-3.2-0.1z"/>
	</g>
	<g id="freepik--character-3--inject-7">
		<path id="Layer" class="s5" d="m626.7 253.9l-1.8 6.6-1 3.4-10.9 2.2-5.8-10.3c4-4.1 11.1-3.9 11.1-3.9z"/>
		<path id="Layer" class="s2" d="m546.3 242.9c0 0 3.5 2.2 4.4 4.5 0.8 2.4 20.7 16.5 20.7 16.5l2.6-0.7 31.9-9.8 8 14.4-39.4 14.8c-1.2 0.3-29.2-8.8-29.2-8.8z"/>
		<path id="Layer" class="s4" d="m622.1 275.9l-24.3-7.7-10 31.3-33.6-10.7 10-31.3-80.3-25.7 7.4-23.2 100.4-72.1 36.3 11.5-93.8 68.9 40 12.8 8.9-27.9 32.6 10.4-8.9 27.9 24.2 7.7z"/>
		<g id="Layer" style="opacity: .3">
			<path id="Layer" class="s3" d="m622.1 275.9l-24.3-7.7-10 31.3-33.6-10.7 10-31.3-80.3-25.7 7.4-23.2 100.4-72.1 36.3 11.5-93.8 68.9 40 12.8 8.9-27.9 32.6 10.4-8.9 27.9 24.2 7.7z"/>
		</g>
		<path id="Layer" class="s4" d="m612.9 273.1l-24.2-7.7-10 31.3-33.7-10.7 10-31.3-80.3-25.7 7.4-23.2 100.5-72.2 36.2 11.6-93.8 68.9 40 12.8 8.9-27.9 32.6 10.4-8.9 27.9 24.3 7.7z"/>
		<g id="Layer" style="opacity: .3">
			<path id="Layer" class="s3" d="m546.7 252.1l-4-8.4 2.5-6.5 8.5-13.2 11.5 2.7q-0.4 1.1-0.8 2.2-0.4 1.1-0.8 2.2-0.5 1-1 2.1-0.5 1.1-1 2.1c-2 3.4-11.2 3.1-11.2 3.1l-0.9 4.8 0.4 9.8z"/>
		</g>
		<path id="Layer" class="s1" d="m534.5 211.6q0.1-1.5 0.2-2.9 0.1-1.5 0.2-2.9 0.2-1.5 0.4-2.9 0.2-1.5 0.5-2.9 0.3-1.4 0.8-2.8 0.5-1.4 1.1-2.7 0.6-1.3 1.4-2.6 0.8-1.2 1.7-2.3c0.4-0.5 3.4-3.3 3.9-3 0.4 0.2-1.8 3-1.8 3.4q0.2 1.5 0.2 3-0.1 1.6-0.3 3-0.3 1.5-0.8 3-0.5 1.4-1.2 2.7-0.6 1.3-1.3 2.6-0.8 1.3-1.5 2.5-0.8 1.3-1.7 2.5-0.8 1.1-1.8 2.3"/>
		<path id="Layer" class="s5" d="m547.2 239.6c-0.7 1.7-1.8 3.1-3.3 4.1-1.5 1-3.3 1.5-5.1 1.5-1.8 0-3.6-0.6-5-1.7-1.5-1.1-2.6-2.6-3.2-4.3l-3.3-9.7 12.2-31.9c3.2-9.2 11.2-15 20.4-11.6l0.8 0.4c2 0.9 3.8 2.1 5.3 3.7 1.5 1.5 2.8 3.4 3.6 5.4 0.9 2 1.3 4.1 1.4 6.3 0.1 2.1-0.3 4.3-1 6.4-2.8 7.9-6 16.7-7.9 20.8-4 8.5-13.1 6-13.1 6 0 0-0.8 2-1.9 4.5z"/>
		<path id="Layer" class="s6" d="m548.1 237.2c-8.8-3-9.3-11.4-8.8-10.5q0.9 1.4 2 2.6 1.1 1.2 2.3 2.3 1.2 1 2.6 1.9 1.3 0.8 2.8 1.5z"/>
		<path id="Layer" class="s1" d="m561.7 214.3q-0.1 0.2-0.3 0.4-0.2 0.2-0.4 0.3-0.3 0.1-0.5 0.1-0.3 0-0.5-0.1-0.3-0.1-0.5-0.3-0.1-0.2-0.3-0.4-0.1-0.2-0.1-0.5 0-0.2 0.1-0.5 0.1-0.2 0.3-0.4 0.2-0.2 0.4-0.3 0.3-0.1 0.5-0.1 0.3 0 0.5 0.1 0.3 0.1 0.5 0.3 0.2 0.1 0.3 0.4 0.1 0.2 0.1 0.5 0 0.2-0.1 0.5z"/>
		<path id="Layer" class="s1" d="m566.6 210.8c-0.2 0.1-0.9-1-2.2-1.6-1.3-0.5-2.5-0.3-2.6-0.5-0.1-0.3 0.2-0.4 0.8-0.5q0.3 0 0.6 0 0.2 0 0.5 0 0.3 0 0.6 0.1 0.2 0.1 0.5 0.2 0.3 0.1 0.5 0.3 0.2 0.1 0.4 0.3 0.2 0.2 0.4 0.4 0.2 0.2 0.3 0.5c0.3 0.4 0.3 0.8 0.2 0.8z"/>
		<path id="Layer" class="s1" d="m550.6 209.8q-0.1 0.2-0.3 0.4-0.2 0.2-0.4 0.3-0.3 0.1-0.5 0.1-0.3 0-0.5-0.1-0.3-0.1-0.5-0.3-0.1-0.2-0.3-0.4-0.1-0.2-0.1-0.5 0-0.2 0.1-0.5 0.1-0.2 0.3-0.4 0.2-0.2 0.4-0.3 0.3-0.1 0.5-0.1 0.3 0 0.5 0.1 0.3 0.1 0.5 0.3 0.2 0.1 0.3 0.4 0.1 0.2 0.1 0.5 0 0.2-0.1 0.5z"/>
		<path id="Layer" class="s1" d="m554.2 205.8c-0.3 0.1-0.9-1-2.2-1.6-1.3-0.6-2.6-0.3-2.6-0.5-0.1-0.3 0.2-0.4 0.8-0.5q0.2 0 0.5 0 0.3-0.1 0.6 0 0.3 0 0.5 0.1 0.3 0.1 0.6 0.2 0.2 0.1 0.5 0.3 0.2 0.1 0.4 0.3 0.2 0.2 0.4 0.4 0.2 0.3 0.3 0.5c0.3 0.4 0.3 0.8 0.2 0.8z"/>
		<path id="Layer" class="s1" d="m553.7 217.8q0.3 0 0.6 0.1 0.3 0.1 0.6 0.1 0.2 0.1 0.5 0.2 0.3 0.1 0.6 0.2c0.3 0.1 0.7 0.2 0.8 0q0.1-0.1 0.2-0.3 0-0.1 0-0.2 0.1-0.2 0.1-0.3 0-0.2 0-0.3c0-1 0.1-2 0.1-3 0.3-4.3 0.6-7.7 0.8-7.7 0.1 0 0.1 3.5-0.2 7.7 0 1.1-0.1 2-0.2 3q0.1 0.2 0 0.4 0 0.2 0 0.4-0.1 0.1-0.2 0.3-0.1 0.2-0.2 0.3 0 0.1-0.1 0.1-0.1 0.1-0.2 0.1-0.1 0.1-0.2 0.1-0.1 0-0.2 0-0.1-0.1-0.2-0.1-0.1 0-0.2 0 0 0-0.1-0.1-0.1 0-0.2 0-0.2-0.1-0.5-0.2-0.3-0.1-0.6-0.2-0.2-0.2-0.5-0.3-0.3-0.1-0.5-0.3z"/>
		<path id="Layer" class="s1" d="m556 201.3c-0.3 0.3-1.4-0.7-3-1.4-1.5-0.8-2.9-1.2-2.9-1.6 0-0.2 0.5-0.4 1.1-0.4q0.4 0 0.7 0.1 0.3 0 0.6 0.1 0.3 0.1 0.6 0.2 0.3 0.1 0.6 0.3 0.3 0.1 0.6 0.3 0.3 0.2 0.5 0.4 0.3 0.2 0.5 0.4 0.2 0.3 0.4 0.5c0.4 0.6 0.5 1 0.3 1.1z"/>
		<path id="Layer" class="s1" d="m568.3 206.1c-0.4 0.2-1.2-0.6-2.3-1-1-0.5-2.1-0.7-2.1-1.1 0-0.2 0.2-0.5 0.8-0.6q0.2 0 0.5 0 0.2 0 0.5 0 0.2 0.1 0.5 0.2 0.2 0 0.5 0.1 0.2 0.2 0.4 0.3 0.2 0.2 0.4 0.3 0.2 0.2 0.4 0.4 0.1 0.2 0.3 0.4c0.2 0.5 0.2 0.9 0.1 1z"/>
		<path id="Layer" class="s5" d="m533.9 212.8c-0.1 0.1-6.5-1.1-4.1-7 2.5-6 7.4-1.7 7.6-1.6 0 0-3.3 8.4-3.5 8.6z"/>
		<path id="Layer" class="s6" d="m532.8 209.9q-0.1 0.1-0.3 0.1-0.1 0-0.2-0.1-0.2 0-0.3-0.1-0.1 0-0.2-0.1-0.3-0.3-0.5-0.7-0.2-0.4-0.2-0.8-0.1-0.4 0-0.9 0.1-0.4 0.2-0.8 0.1-0.2 0.2-0.4 0.1-0.2 0.2-0.4 0.2-0.2 0.3-0.4 0.2-0.1 0.3-0.3 0.2-0.1 0.3-0.2 0.2-0.1 0.4-0.2 0.2-0.1 0.4-0.1 0.2 0 0.4 0 0.1 0.1 0.2 0.1 0 0 0.1 0.1 0.1 0 0.1 0.1 0.1 0.1 0.1 0.1 0 0.1 0.1 0.1 0 0.1 0 0.2 0 0 0 0.1 0 0 0 0.1c-0.1 0.3-0.2 0.3-0.2 0.3-0.1 0 0-0.1 0-0.3q0-0.1-0.1-0.2 0-0.1-0.1-0.2 0 0-0.1-0.1-0.1 0-0.2-0.1-0.2 0-0.3 0.1-0.2 0-0.3 0-0.2 0.1-0.3 0.2-0.1 0.1-0.2 0.2-0.2 0.2-0.3 0.3-0.1 0.2-0.2 0.4-0.2 0.1-0.3 0.3 0 0.2-0.1 0.4-0.2 0.3-0.2 0.7-0.1 0.3-0.1 0.7 0.1 0.4 0.2 0.7 0.1 0.4 0.3 0.7 0.1 0 0.2 0.1 0.1 0 0.2 0.1 0.1 0 0.2 0 0.1 0.1 0.2 0.1c0.2 0 0.3 0 0.3 0 0.1 0 0 0.1-0.2 0.1z"/>
		<path id="Layer" class="s1" d="m569.4 195q-0.4 0.3-0.9 0.5-0.4 0.3-0.9 0.5-0.4 0.2-0.9 0.4-0.5 0.1-1 0.2c-2 0.6-7-3.5-9.9-6q-0.6-0.6-1.4-1-0.8-0.4-1.7-0.5-0.9-0.2-1.8-0.1-0.9 0-1.7 0.3-0.1 0.1-0.2 0.1-0.1 0-0.1 0.1-0.1 0-0.2 0-0.1 0.1-0.2 0.1-0.3 0.3-0.6 0.6-0.3 0.3-0.5 0.7-0.2 0.3-0.3 0.7-0.1 0.4-0.2 0.8c-0.1 1.1 0 2.2-0.1 3.4q-0.2 0.7-0.3 1.5-0.2 0.7-0.5 1.4-0.2 0.8-0.5 1.5-0.3 0.7-0.6 1.4c-1.2 2.6-2.5 5.3-4.7 7.1-1.1 0.8-2.8 1.4-3.5-0.2q0-0.2-0.1-0.5 0-0.2 0-0.5 0-0.3 0.1-0.5 0-0.3 0.2-0.5c0.8-1.8-0.5-3.3-0.8-4.9q-0.1-0.5-0.1-1.1 0-0.5 0.1-1 0.1-0.5 0.2-1 0.2-0.5 0.4-0.9 0.5-1.6 1.3-3.1 0.7-1.5 1.7-2.9 0.9-1.4 2-2.6 1.1-1.2 2.4-2.3c3.4-2.8 7.5-3.5 11.9-3 3.7 0.4 8.8 3.5 11.7 6.6 1.9 2 3.6 6.3 2.4 6.4z"/>
		<path id="Layer" class="s1" d="m553.9 222.5c0 0.1-0.4 0.2-0.9 0.1q-0.3 0-0.5-0.1-0.3-0.1-0.5-0.2-0.3-0.1-0.5-0.3-0.2-0.1-0.4-0.3-0.2-0.2-0.4-0.4-0.2-0.2-0.3-0.4-0.2-0.3-0.3-0.5-0.1-0.3-0.1-0.5c-0.2-0.6 0-0.9 0-0.9 0.1 0 0.6 1.1 1.7 2.1 1 0.9 2.2 1.2 2.2 1.4z"/>
		<path id="Layer" class="s6" d="m556.7 171.1q-0.4 0.8-0.9 1.6-0.4 0.8-0.9 1.6-0.4 0.7-0.9 1.5-0.5 0.8-1 1.5-0.5 0.8-0.9 1.5-0.5 0.8-1 1.5-0.6 0.8-1.1 1.5-0.5 0.7-1.1 1.4 0.4-0.8 0.8-1.6 0.5-0.8 0.9-1.5 0.5-0.8 1-1.6 0.4-0.7 1-1.5 0.4-0.8 0.9-1.5 0.5-0.8 1-1.5 0.5-0.8 1.1-1.5 0.5-0.7 1.1-1.4z"/>
		<path id="Layer" class="s1" d="m533.4 318.2l9.2 1.2 0.4 5.5c0 0 32.5 32.2 33.5 36.3 1 4.1-12.4 73.9-12.4 73.9l-22.2-1.6c-1.6-0.1 7.4-60.4 7.4-60.4l-18.6-17.7z"/>
		<path id="Layer" class="s1" d="m494 325.8q-0.6-2.8-0.5-5.7 0-2.9 0.7-5.8 0.7-2.8 2-5.4v-0.1l42 10-1.8 14.8c0 0 5.4 51.9 4.1 57-1.7 6.5-50.3 59-50.3 59l-18-15.1 40.3-49-11.3-41.3c-0.6-4-3.6-8.8-5.4-12.9q-1.2-2.7-1.8-5.5z"/>
		<path id="Layer" class="s1" d="m499.5 435.8l-13 15c0 0 10.1 17.6 7.9 20.6l-28.4-23 19.4-24.2z"/>
		<path id="Layer" class="s7" d="m478.6 442.3q0.3 0.1 0.5 0.3 0.2 0.2 0.3 0.5 0.2 0.3 0.2 0.6 0 0.3-0.1 0.5-0.2 0.3-0.4 0.5-0.2 0.2-0.5 0.3-0.3 0.1-0.6 0.1-0.2 0-0.5-0.1-0.3-0.1-0.5-0.3-0.1-0.2-0.2-0.5-0.1-0.3-0.1-0.5 0-0.3 0.2-0.6 0.1-0.2 0.3-0.4 0.2-0.2 0.5-0.3 0.3-0.1 0.5-0.1 0.3 0 0.6 0.1"/>
		<path id="Layer" class="s2" d="m466 448.4l2-2.3 26.5 23c0 0 0.8 1.6-0.1 2.4z"/>
		<path id="Layer" class="s8" d="m487.1 451c-0.1 0.1-0.9-0.4-1.9-0.4-1.1-0.1-2 0.2-2 0-0.1-0.1 0.8-0.8 2.1-0.7 1.2 0.1 1.9 1 1.8 1.1z"/>
		<path id="Layer" class="s8" d="m489 454.7c-0.1 0.2-0.9 0-1.9 0.2-0.9 0.3-1.6 0.8-1.7 0.7-0.2-0.1 0.4-1 1.6-1.3 1.3-0.3 2.1 0.3 2 0.4z"/>
		<path id="Layer" class="s8" d="m487.7 459.9c-0.2-0.1 0.2-1 1.2-1.5 1-0.5 1.9-0.3 1.9-0.1 0 0.1-0.8 0.2-1.6 0.7-0.8 0.4-1.4 1-1.5 0.9z"/>
		<path id="Layer" class="s8" d="m489.7 447.3c-0.2 0.1-0.6-0.7-1.4-1.2-0.9-0.6-1.7-0.8-1.7-1 0.1-0.2 1-0.3 2 0.4 1 0.7 1.3 1.7 1.1 1.8z"/>
		<path id="Layer" class="s1" d="m563.2 422.9l-0.2 20.2c0 0 19.4 7.2 19.7 10.9l-37.2 0.8-0.9-31.6z"/>
		<path id="Layer" class="s7" d="m551.3 441.7q0.3-0.1 0.6-0.1 0.3 0 0.6 0.1 0.2 0.2 0.4 0.4 0.2 0.2 0.3 0.5 0.1 0.3 0.1 0.6-0.1 0.3-0.2 0.6-0.2 0.3-0.4 0.5-0.2 0.2-0.5 0.3-0.3 0.1-0.6 0-0.3 0-0.5-0.2-0.3-0.1-0.4-0.4-0.2-0.2-0.3-0.5 0-0.3 0-0.5 0.1-0.3 0.2-0.6 0.1-0.2 0.4-0.4 0.2-0.2 0.4-0.3"/>
		<path id="Layer" class="s2" d="m545.5 454.8v-3.2l35.7 0.5c0 0 1.7 0.7 1.5 2z"/>
		<path id="Layer" class="s8" d="m563.6 442.9c0 0.2-0.9 0.3-1.8 1-0.9 0.6-1.3 1.4-1.5 1.3-0.2 0 0.1-1.1 1.2-1.9 1-0.7 2.1-0.5 2.1-0.4z"/>
		<path id="Layer" class="s8" d="m567.5 444.6c0.1 0.1-0.7 0.5-1.3 1.3-0.6 0.8-0.8 1.7-1 1.7-0.2 0-0.3-1.1 0.4-2.1 0.8-1 1.9-1.1 1.9-1z"/>
		<path id="Layer" class="s8" d="m569.9 449.4c-0.2 0-0.5-0.9 0-2 0.4-1 1.3-1.5 1.3-1.3 0.1 0.2-0.4 0.7-0.8 1.6-0.3 0.9-0.4 1.7-0.5 1.7z"/>
		<path id="Layer" class="s8" d="m563.2 438.3c-0.1 0.2-1-0.1-2 0-1 0.1-1.8 0.4-1.9 0.3-0.1-0.2 0.7-0.9 1.9-1 1.2-0.1 2 0.5 2 0.7z"/>
		<path id="Layer" class="s2" d="m536.7 330.2q0 0.1 0 0.1 0 0.1 0 0.2 0.1 0 0.1 0.1 0 0.1 0 0.2 0.1 0.6 0.2 1.5c0.1 1.3 0.3 3.3 0.6 5.7 0.4 4.8 1 11.5 1.5 18.9 0.4 7.4 0.8 14 1.1 18.9 0.2 2.3 0.3 4.3 0.4 5.7v1.5q0 0.1 0 0.2 0 0 0 0.1 0 0.1 0 0.1 0 0.1 0 0.2 0-0.1 0-0.2 0 0-0.1-0.1 0-0.1 0-0.1 0-0.1 0-0.2c0-0.4-0.1-0.9-0.2-1.5-0.1-1.4-0.2-3.4-0.4-5.7-0.4-4.8-0.9-11.5-1.4-18.9-0.5-7.4-1-14-1.3-18.9-0.2-2.3-0.3-4.3-0.4-5.7 0-0.6-0.1-1.1-0.1-1.5q0-0.1 0-0.2 0 0 0-0.1 0-0.1 0-0.2 0 0 0-0.1z"/>
		<path id="Layer" class="s5" d="m635 251.4c0.8 1.5-2.3 2.9-2.3 2.9 0.7 0.6 0 3.1-1.3 3.2 0.6 0.4 0.9 0.5 1.2 1.1q0.1 0.2 0.1 0.5 0.1 0.2 0 0.5 0 0.2-0.1 0.5 0 0.2-0.2 0.4-0.1 0.2-0.3 0.4-0.2 0.1-0.5 0.2-0.2 0.1-0.4 0.1-0.3 0-0.5-0.1 0.2 0.3 0.3 0.7 0.2 0.4 0.2 0.8 0 0.3-0.1 0.7-0.1 0.4-0.2 0.7-0.2 0.2-0.3 0.4-0.2 0.2-0.4 0.3-0.2 0.1-0.4 0.2-0.2 0.1-0.4 0.2-0.1 0-0.2 0.1-0.1 0-0.3 0-0.1 0-0.2 0-0.1 0-0.2 0-0.1 0-0.1 0-0.1 0-0.1 0 0 0-0.1 0 0 0-0.1-0.1l-0.1-0.1c-0.2-0.1-0.3-0.4-0.5-0.5l-0.2-0.2q-0.1-0.1-0.3-0.2-0.1-0.1-0.2-0.2-0.2-0.1-0.3-0.1-0.2-0.1-0.3-0.2-0.1 0-0.2 0-0.1 0-0.1-0.1-0.1 0-0.2 0 0-0.1-0.1-0.1 0 0-0.1-0.1 0 0-0.1 0 0-0.1 0-0.1-0.1 0-0.1-0.1-0.3-0.2-0.5-0.3-0.3-0.2-0.6-0.3-0.3-0.1-0.6-0.2-0.3-0.1-0.6-0.2-0.4 0-0.7-0.2-0.3-0.1-0.6-0.3-0.3-0.1-0.6-0.3-0.3-0.3-0.6-0.5-0.2-0.3-0.3-0.6-0.1-0.3-0.1-0.7 0-0.3 0.1-0.6 0.2-0.4 0.4-0.6-0.2 0-0.4-0.2-0.2-0.1-0.3-0.3-0.2-0.1-0.2-0.4-0.1-0.2-0.1-0.4 0-0.2 0.1-0.4 0.1-0.2 0.2-0.4 0.2-0.2 0.3-0.3 0.2-0.2 0.4-0.3 0.2-0.1 0.4-0.1 0.3-0.1 0.5-0.1 0.2-0.1 0.4-0.1 0.2 0 0.5 0-0.3 0-0.5-0.2-0.2-0.2-0.3-0.4-0.1-0.3-0.1-0.5 0-0.3 0.1-0.5 0.1-0.3 0.2-0.5 0.2-0.2 0.4-0.4 0.2-0.1 0.4-0.3 0.3-0.1 0.5-0.1 0.3-0.1 0.5-0.1 0.3 0 0.6 0 0.2 0 0.5 0.1 0.2 0 0.5 0.1c0.7 0.1 3.5 0.7 4.2 0.7l0.7-1.8 0.1-0.2c1.3-0.2 1.7-0.3 2.8-0.4 0.8-0.1 1.6 0 2 0.6z"/>
		<path id="Layer" class="s5" d="m628.2 267.7q-0.1 0.2-0.2 0.4-0.1 0.2-0.2 0.3-0.1 0.2-0.3 0.4-0.1 0.1-0.3 0.2-0.3 0.1-0.7 0.1-0.3 0-0.6-0.1-0.3 0-0.6-0.1-0.3-0.1-0.6-0.2c-0.2-0.1 0.5-2 0.5-2l0.1-0.4c-0.2-0.5-1-0.7-1.3-0.9q-0.2-0.2-0.4-0.5-0.1-0.3-0.1-0.6 0-0.3 0.1-0.5 0-0.3 0.2-0.5 0.2-0.3 0.5-0.4 0.2-0.2 0.5-0.2 0.3-0.1 0.6-0.1 0.3 0 0.6 0.1 0.2 0.1 0.5 0.2 0.3 0.1 0.5 0.3 0.2 0.2 0.4 0.4 0.2 0.3 0.3 0.5 0.3 0.4 0.4 0.9 0.2 0.4 0.2 0.9 0.1 0.4 0 0.9 0 0.4-0.1 0.9z"/>
		<path id="Layer" class="s6" d="m629.5 261q-0.6-0.1-1.3-0.3-0.6-0.1-1.3-0.3-0.6-0.2-1.3-0.4-0.6-0.2-1.3-0.3-0.6-0.2-1.2-0.4-0.7-0.3-1.3-0.5-0.6-0.3-1.2-0.5 0.6 0.1 1.3 0.2 0.7 0.1 1.3 0.2 0.7 0.2 1.3 0.4 0.7 0.2 1.3 0.4 0.6 0.1 1.3 0.3 0.6 0.2 1.3 0.4 0.6 0.2 1.2 0.5 0.6 0.2 1.2 0.5-0.6-0.1-1.3-0.2z"/>
		<path id="Layer" class="s6" d="m630.4 257.3q-0.6-0.1-1.2-0.2-0.6-0.2-1.2-0.3-0.6-0.2-1.1-0.4-0.6-0.1-1.2-0.2-0.6-0.2-1.2-0.3-0.6-0.1-1.2-0.3-0.5-0.2-1.1-0.4 0.6 0 1.2 0.1 0.6 0 1.2 0.1 0.6 0 1.2 0.2 0.6 0.1 1.2 0.3 0.6 0.1 1.2 0.3 0.6 0.1 1.1 0.3 0.6 0.2 1.2 0.5 0.5 0.3 1 0.6-0.5-0.2-1.1-0.3z"/>
		<path id="Layer" class="s6" d="m631.2 253.9q-0.5-0.1-1-0.2-0.5 0-0.9-0.2-0.5-0.1-1-0.2-0.5-0.1-1-0.2-0.5-0.1-1-0.2-0.5-0.1-0.9-0.3-0.5-0.2-1-0.4 0.5 0 1 0.1 0.5 0 1 0.1 0.5 0 1 0.1 0.5 0.1 1 0.3 0.5 0 1 0.1 0.5 0.2 1 0.3 0.5 0.2 0.9 0.4 0.5 0.2 0.9 0.4-0.5 0-1-0.1z"/>
		<path id="Layer" class="s6" d="m628 265.6q-0.1-0.2-0.2-0.4-0.1-0.3-0.3-0.5-0.1-0.2-0.3-0.4-0.1-0.1-0.3-0.3-0.2-0.1-0.5-0.3-0.2-0.1-0.4-0.3-0.2-0.1-0.4-0.2-0.2-0.2-0.5-0.3c-0.4-0.2-0.7 0-0.8-0.1-0.1 0 0.3-0.4 0.9-0.3q0.3 0.1 0.6 0.2 0.2 0.1 0.5 0.3 0.2 0.1 0.5 0.3 0.2 0.1 0.4 0.3 0.3 0.2 0.5 0.4 0.2 0.2 0.3 0.5 0.2 0.2 0.2 0.5 0.1 0.3 0.2 0.5c0.1 0.6-0.1 1-0.2 1-0.1-0.1 0-0.4-0.2-0.9z"/>
		<path id="Layer" class="s1" d="m544.9 284.3q0-0.2 0-0.4 0-0.2 0-0.4 0.1-0.2 0.1-0.4 0-0.1 0-0.3c0.1-1 0.3-2.4 0.4-4 0.3-3.4 0.7-8.2 0.9-13.4 0.2-5.2 0.2-10 0.2-13.4 0-1.6-0.1-3-0.1-4q0-0.2 0-0.4 0-0.2 0-0.4 0-0.2 0-0.3 0-0.2 0-0.4 0 0.2 0.1 0.4 0 0.1 0 0.3 0 0.2 0.1 0.4 0 0.2 0 0.4 0.1 1.5 0.2 4c0.1 3.5 0.2 8.2 0 13.4-0.2 5.3-0.6 10-1 13.4-0.3 1.7-0.4 3.1-0.6 4q0 0.2 0 0.4-0.1 0.2-0.1 0.3 0 0.2-0.1 0.4 0 0.2-0.1 0.4z"/>
		<path id="Layer" class="s2" d="m546.3 242.9l0.8 12.7-4.2 54.1c2.5 5 3.9 9.8 1.8 14.5l-53.2-0.6 3.2-34.2 4.1-23.1c0 0 5.5-26.1 9.1-30.1 3.6-4.1 20.6-12.4 21.5-12.9z"/>
		<path id="Layer" class="s2" d="m506.6 250.9c0 0-9-3.8-9.9-9.5-0.9-5.6 0.2-7.1 1.7-9.5 1.5-2.4 28.7-31.4 28.7-31.4l13.3 11-19.2 22.5c0 0 2.8 0.4 1.9 4"/>
		<path id="Layer" class="s1" d="m523.1 238.1q0-0.2 0-0.4 0-0.1 0.1-0.3 0-0.1 0-0.3 0-0.2 0-0.3 0-0.2 0-0.4 0-0.2-0.1-0.4 0-0.2-0.1-0.4-0.1-0.1-0.2-0.3-0.1-0.2-0.3-0.4-0.2-0.2-0.4-0.4-0.2-0.1-0.4-0.2-0.3-0.1-0.5-0.2h-0.2l0.1-0.1 19.1-22.7v0.4l-13.3-10.9h0.4l-5 5.4-15.8 16.8c-2.3 2.6-4.6 5.1-6.7 7.5q-0.2 0.2-0.4 0.4-0.1 0.2-0.3 0.5-0.2 0.2-0.4 0.4-0.1 0.2-0.3 0.5-0.1 0.2-0.3 0.4-0.1 0.3-0.3 0.5-0.1 0.3-0.2 0.5-0.2 0.3-0.3 0.5-0.2 0.5-0.3 1-0.2 0.5-0.3 1-0.1 0.5-0.1 1 0 0.5 0 1 0 0.5 0 1 0.1 0.4 0.1 0.9 0.1 0.5 0.2 0.9 0 0.5 0.1 1 0.2 0.4 0.3 0.8 0.2 0.3 0.3 0.7 0.2 0.4 0.5 0.7 0.2 0.4 0.5 0.7 0.4 0.5 0.9 1 0.4 0.5 0.9 1 0.5 0.4 1.1 0.8 0.5 0.5 1.1 0.8 0.3 0.3 0.7 0.5 0.4 0.2 0.7 0.5 0.4 0.2 0.8 0.4 0.3 0.2 0.7 0.4l0.8 0.4q0 0 0.1 0.1 0 0 0 0 0.1 0 0.1 0 0 0.1 0.1 0.1-0.1 0-0.1 0 0 0-0.1-0.1 0 0 0 0-0.1 0-0.1 0l-0.8-0.4q-0.4-0.2-0.8-0.4-0.4-0.2-0.8-0.4-0.3-0.2-0.7-0.4-0.4-0.3-0.7-0.5-0.6-0.4-1.2-0.8-0.5-0.4-1-0.8-0.5-0.5-1-1-0.5-0.5-1-1-0.2-0.3-0.5-0.7-0.2-0.3-0.4-0.7-0.2-0.4-0.4-0.8-0.1-0.4-0.3-0.8-0.1-0.5-0.2-1 0-0.4-0.1-0.9-0.1-0.5-0.1-1 0-0.5-0.1-0.9 0-0.6 0-1.1 0.1-0.5 0.2-1.1 0.1-0.5 0.2-1 0.2-0.5 0.4-1 0.2-0.6 0.5-1.1 0.3-0.5 0.6-0.9 0.3-0.5 0.7-1 0.3-0.4 0.7-0.9c2.1-2.4 4.3-4.9 6.7-7.5 4.8-5.2 10.1-11 15.7-16.9l5-5.4 0.1-0.2 0.2 0.2 13.3 10.9 0.2 0.1-0.2 0.2-19.3 22.5v-0.2q0.2 0.1 0.5 0.2 0.3 0.1 0.5 0.3 0.2 0.2 0.4 0.4 0.2 0.2 0.3 0.4 0.1 0.2 0.2 0.4 0.1 0.2 0.1 0.4 0.1 0.2 0.1 0.4 0 0.2 0 0.4 0 0.1 0 0.2 0 0.2-0.1 0.3 0 0.1 0 0.2 0 0.2-0.1 0.3 0 0 0 0 0 0.1 0 0.1 0 0.1 0 0.1 0 0 0 0.1z"/>
		<path id="Layer" class="s5" d="m529.6 177.9q0.3 0.4 0.6 0.8 0.3 0.4 0.5 0.8 0.1 0.5 0.2 0.9c0.6 2.2 2.9 5.2 3.8 5.5 1 0.3 3.5-2.5 4.4-3.4 0.8-0.9 6.3-11.4 8.8-13.9 2.5-2.6 3.4-0.7 3.4 0.5 0 1.2-5.8 9.6-6.2 10.6-0.5 0.9-0.1 1.2 0.4 0.9 0.5-0.3 5.3-7.2 6.7-9.3 1.4-2.1 2.7-3.4 4-2.9 1.3 0.5 0.4 2.9 0.4 2.9 0 0 2.6 0.5 1.8 2.9-0.5 1.8-6.5 11.3-6.8 11.8-0.3 0.4 0 1.2 0.6 1 0.6-0.3 3.8-4.5 5.1-6.3 1.4-1.8 3.3-1.5 3 0.3-0.2 1.9-9.3 15.2-11.7 18.7q-0.6 0.9-1.3 1.6-0.7 0.7-1.4 1.3-0.8 0.6-1.7 1.1-0.9 0.5-1.8 0.9l-3.3 5.9-10.5-8.7c0 0 2.2-2.5 2.5-3.3 0.2-0.8-1.3-6.8-1.6-6.8-0.3 0-2.8-10.4-2.5-13 0.3-2.6 1.9-1.4 1.9-1.4q0.4 0.3 0.7 0.6z"/>
		<path id="Layer" class="s6" d="m528.9 177.3q0.1 0.1 0.3 0.2 0.1 0.1 0.2 0.2 0.1 0.1 0.3 0.3 0.1 0.1 0.2 0.2 0.1 0.2 0.2 0.4 0.2 0.2 0.3 0.4 0.1 0.1 0.2 0.3 0 0.2 0.1 0.4c0.2 0.3 0.2 0.7 0.3 1q0.1 0.2 0.1 0.3 0.1 0.2 0.2 0.3 0 0.1 0.1 0.3 0.1 0.1 0.1 0.3 0.2 0.3 0.4 0.6 0.1 0.3 0.3 0.6 0.2 0.3 0.5 0.6 0.2 0.3 0.4 0.6c0.7 0.7 1.6 2.1 2.7 1q0.3-0.3 0.7-0.7 0.4-0.3 0.8-0.6 0.3-0.4 0.7-0.7 0.3-0.4 0.6-0.8 0.2-0.2 0.4-0.4 0.1-0.2 0.3-0.5 0.1-0.2 0.3-0.4 0.1-0.2 0.3-0.5l1.1-2c1.7-2.7 3.4-5.8 5.5-9q0.2-0.3 0.5-0.6 0.2-0.3 0.5-0.5 0.2-0.3 0.5-0.6 0.3-0.2 0.5-0.4 0.2-0.2 0.4-0.3 0.2-0.1 0.3-0.1 0.2-0.1 0.4-0.2 0.2 0 0.5 0 0.2 0 0.4 0.1 0.2 0.1 0.3 0.3 0.2 0.1 0.3 0.3 0.1 0.2 0.2 0.4 0 0.1 0 0.2 0 0.1 0.1 0.2 0 0.1 0 0.2 0 0.1 0 0.3 0 0 0 0.1 0 0 0 0.1 0 0-0.1 0.1 0 0 0 0.1l-0.1 0.4q-0.4 0.7-0.7 1.4-0.8 1.4-1.7 2.7l-3.5 5.6q-0.1 0.1-0.1 0.2-0.1 0.1-0.1 0.2 0 0-0.1 0.1 0 0.1 0 0.2c0 0.1 0 0.2 0.1 0.2q0 0 0 0 0 0 0.1 0 0 0 0 0 0.1 0 0.1 0l0.1-0.1 0.1-0.2q0.2-0.2 0.3-0.3l0.5-0.7q1-1.4 2.1-2.9l4.1-6q0.2-0.2 0.3-0.3 0.2-0.2 0.3-0.4 0.2-0.2 0.3-0.4 0.2-0.1 0.4-0.3 0.2-0.2 0.4-0.3 0.2-0.2 0.4-0.3 0.3-0.1 0.5-0.1 0.3-0.1 0.5-0.1 0.2 0 0.3 0 0.1 0 0.3 0.1 0.1 0 0.2 0.1 0.1 0.1 0.2 0.2 0.1 0.1 0.2 0.2 0.1 0.1 0.1 0.2 0.1 0.1 0.1 0.3 0 0.1 0 0.3 0.1 0.2 0.1 0.5-0.1 0.2-0.1 0.5 0 0.2-0.1 0.5-0.1 0.2-0.1 0.5l-0.2-0.4q0.3 0.1 0.6 0.2 0.3 0.1 0.5 0.3 0.3 0.2 0.5 0.5 0.2 0.2 0.4 0.5 0.1 0.3 0.1 0.6 0 0.3 0 0.6 0 0.4-0.2 0.7-0.1 0.3-0.2 0.5c-0.7 1.5-1.5 2.8-2.3 4.2l-2.5 4.1-1.3 2.1-0.3 0.5-0.2 0.3q0 0 0 0 0 0 0 0.1 0 0 0 0 0 0 0 0 0 0.1 0 0.1 0 0.1 0 0.1 0 0.1 0 0.1 0 0.1 0.1 0.1 0 0 0 0 0.1 0 0.1 0 0.1 0 0.1 0 0 0 0.1 0 0 0 0.1-0.1 0-0.1 0.1-0.1 0-0.1 0.1-0.1 0-0.1 0.1-0.1l0.5-0.6 0.9-1.1q0.9-1.1 1.7-2.2c0.6-0.8 1.1-1.5 1.8-2.3q0.1-0.1 0.3-0.3 0.1-0.1 0.3-0.2 0.2-0.1 0.3-0.2 0.2 0 0.4-0.1 0.2-0.1 0.4-0.1 0.2 0 0.4 0.1 0.3 0 0.4 0.1 0.2 0.2 0.4 0.3 0.1 0.2 0.1 0.4 0.1 0.2 0.1 0.4 0 0.2 0 0.4 0 0.2 0 0.4-0.1 0.1-0.1 0.1 0 0.1-0.1 0.2 0 0.1 0 0.2-0.1 0.1-0.1 0.2-0.2 0.3-0.3 0.6-0.7 1.2-1.4 2.4-1.4 2.4-2.9 4.6-2.9 4.5-5.8 8.7c-0.5 0.7-0.9 1.4-1.4 2.1q-0.2 0.3-0.4 0.5-0.2 0.2-0.5 0.5-0.2 0.2-0.4 0.4-0.2 0.3-0.5 0.5-0.4 0.4-0.9 0.7-0.5 0.4-1.1 0.7-0.5 0.3-1.1 0.6-0.5 0.3-1.1 0.5l0.2-0.1-3.3 5.9-0.2 0.2-0.2-0.1-10.5-8.8-0.2-0.1 0.2-0.1q0.2-0.3 0.5-0.6 0.3-0.3 0.5-0.6 0.3-0.3 0.5-0.6 0.2-0.3 0.5-0.6 0-0.1 0.1-0.1 0-0.1 0.1-0.2 0-0.1 0.1-0.2 0 0 0.1-0.1 0-0.1 0-0.2 0.1 0 0.1-0.1 0-0.1 0-0.2 0-0.1 0-0.1 0-0.2-0.1-0.4 0-0.2 0-0.3 0-0.2-0.1-0.4 0-0.2 0-0.4-0.3-1.4-0.6-2.7-0.2-0.6-0.4-1.2-0.1-0.3-0.2-0.6c0-0.1-0.1-0.2-0.1-0.3 0 0 0.1 0 0 0q0 0 0 0 0 0-0.1 0 0 0 0 0 0-0.1 0-0.1l-0.1-0.1q-0.2-0.6-0.3-1.2-0.2-0.5-0.3-1.1-0.2-0.6-0.3-1.2-0.2-0.5-0.3-1.1-0.4-2.1-0.7-3.9c-0.4-2.3-0.7-4.3-0.1-5.5q0.1 0 0.1-0.1 0.1-0.1 0.2-0.2 0.1-0.1 0.1-0.1 0.1-0.1 0.2-0.1 0.1 0 0.2-0.1 0.1 0 0.1 0 0.1 0 0.2 0 0.1 0.1 0.1 0.1 0.1 0 0.2 0 0 0.1 0.1 0.1 0 0 0.1 0.1 0 0 0.1 0c0 0.1-0.2-0.1-0.5-0.2q0 0-0.1 0-0.1 0-0.2 0 0 0-0.1 0-0.1 0-0.1 0-0.1 0.1-0.2 0.1-0.1 0.1-0.2 0.1 0 0.1-0.1 0.2 0 0.1-0.1 0.2c-0.5 1.1-0.2 3 0.2 5.3q0.2 1.1 0.4 2.1 0.2 1.1 0.5 2.2 0.2 1 0.5 2 0.3 1.1 0.6 2.1 0 0 0 0.1 0 0 0 0 0 0 0 0 0 0 0 0c0 0 0 0 0 0.1 0 0.1 0 0.2 0-0.1h0.1v0.1q0 0 0 0 0 0.1 0.1 0.1 0 0.1 0 0.1 0 0 0 0.1 0.1 0.3 0.2 0.6 0.2 0.6 0.4 1.3 0.4 1.3 0.7 2.7 0 0.2 0 0.4 0.1 0.2 0.1 0.3 0 0.2 0 0.4 0.1 0.2 0.1 0.4 0 0 0 0.1 0 0 0 0.1 0 0 0 0.1 0 0 0 0.1 0 0 0 0.1-0.1 0-0.1 0.1 0 0 0 0.1 0 0-0.1 0.1 0 0.1-0.1 0.2 0 0-0.1 0.1 0 0.1-0.1 0.2 0 0.1-0.1 0.1-0.2 0.4-0.5 0.7-0.2 0.3-0.4 0.6-0.3 0.3-0.6 0.6-0.2 0.3-0.5 0.5v-0.2l10.6 8.6-0.3 0.1c1-1.9 2.1-3.9 3.2-5.9v-0.1h0.1q0.6-0.2 1.1-0.5 0.5-0.2 1-0.5 0.5-0.3 1-0.7 0.5-0.3 0.9-0.7 0.3-0.2 0.5-0.5 0.2-0.2 0.4-0.4 0.2-0.2 0.4-0.4 0.2-0.3 0.4-0.5c0.5-0.7 1-1.4 1.4-2.1q2.9-4.2 5.8-8.7 1.5-2.3 2.9-4.6 0.7-1.2 1.3-2.4 0.2-0.3 0.3-0.6 0.1-0.1 0.1-0.1 0-0.1 0.1-0.2 0-0.1 0-0.1 0-0.1 0.1-0.2 0-0.1 0-0.3 0.1-0.1 0-0.3 0-0.1 0-0.3-0.1-0.1-0.2-0.2 0-0.1-0.2-0.2-0.1-0.1-0.2-0.1-0.1 0-0.3 0-0.1 0-0.3 0-0.1 0.1-0.2 0.2-0.2 0-0.3 0.1-0.2 0.1-0.3 0.2-0.1 0.1-0.2 0.2c-0.6 0.7-1.2 1.5-1.8 2.2-0.5 0.8-1.1 1.5-1.7 2.3q-0.5 0.6-0.9 1.1l-0.5 0.6q-0.1 0.1-0.1 0.1-0.1 0.1-0.2 0.2-0.1 0-0.2 0.1 0 0.1-0.1 0.1-0.1 0.1-0.2 0.1-0.2 0-0.3 0-0.1 0-0.2-0.1-0.1 0-0.2-0.1-0.1-0.1-0.1-0.2-0.1-0.1-0.1-0.2 0-0.1 0-0.2 0-0.1 0-0.2 0 0 0-0.1 0 0 0-0.1 0 0 0-0.1 0.1 0 0.1-0.1l0.1-0.3 0.4-0.5 1.4-1.9q1.3-2.1 2.5-4.1 1.2-2.1 2.3-4.1 0.1-0.3 0.2-0.5 0.1-0.2 0.1-0.5 0.1-0.3 0.1-0.5-0.1-0.3-0.1-0.5-0.2-0.3-0.3-0.5-0.2-0.2-0.4-0.3-0.2-0.2-0.5-0.3-0.2-0.1-0.5-0.1l-0.2-0.1 0.1-0.2q0-0.3 0.1-0.5 0-0.2 0.1-0.4 0-0.2 0-0.5 0-0.2 0-0.4 0-0.1 0-0.2 0-0.1 0-0.2-0.1-0.1-0.1-0.2-0.1 0-0.1-0.1-0.1-0.1-0.2-0.1-0.1-0.1-0.2-0.1-0.1 0-0.2 0 0-0.1-0.1-0.1-0.3 0.1-0.5 0.1-0.2 0.1-0.4 0.2-0.1 0.1-0.3 0.2-0.2 0.1-0.3 0.2-0.2 0.2-0.4 0.4-0.1 0.1-0.3 0.3-0.1 0.2-0.3 0.3-0.1 0.2-0.3 0.4l-4.1 6c-0.7 1-1.4 1.9-2.1 2.9l-0.5 0.7-0.3 0.3-0.1 0.2-0.3 0.2q0 0-0.1 0-0.1 0.1-0.2 0.1 0 0-0.1 0-0.1 0-0.2-0.1 0 0-0.1-0.1-0.1 0-0.1-0.1-0.1-0.1-0.1-0.2 0 0 0-0.1 0-0.2 0-0.3 0-0.1 0.1-0.2 0-0.1 0.1-0.2 0-0.1 0.1-0.3c1.2-2 2.4-3.7 3.6-5.6q0.8-1.3 1.6-2.7 0.4-0.7 0.7-1.4l0.2-0.3q0 0 0-0.1 0 0 0 0 0-0.1 0-0.1 0-0.1 0-0.1 0-0.1-0.1-0.2 0-0.1 0-0.1 0-0.1 0-0.2 0-0.1-0.1-0.2 0-0.1-0.1-0.3 0-0.1-0.2-0.2-0.1-0.2-0.2-0.2-0.1-0.1-0.3-0.1-0.2 0-0.3 0-0.2 0-0.4 0.1-0.1 0-0.3 0.1-0.1 0.1-0.2 0.2-0.3 0.2-0.5 0.5-0.3 0.2-0.5 0.4-0.3 0.3-0.5 0.6-0.2 0.2-0.4 0.5c-2.2 3.1-3.9 6.1-5.5 8.9q-0.6 1-1.2 2-0.2 0.2-0.3 0.5-0.2 0.2-0.3 0.4-0.2 0.3-0.4 0.5-0.1 0.2-0.3 0.4-0.3 0.4-0.7 0.8-0.4 0.3-0.7 0.7-0.4 0.3-0.8 0.7-0.4 0.3-0.8 0.6-0.1 0.1-0.2 0.2-0.1 0-0.2 0.1-0.1 0-0.2 0.1-0.1 0-0.2 0.1-0.1 0-0.1 0-0.1 0-0.2 0 0 0-0.1 0-0.1 0-0.1 0-0.1-0.1-0.1-0.1-0.1 0-0.1-0.1-0.1 0-0.1 0-0.1 0-0.1-0.1-0.2-0.1-0.4-0.3-0.1-0.1-0.3-0.3-0.1-0.1-0.3-0.3-0.1-0.1-0.2-0.3-0.3-0.3-0.5-0.6-0.2-0.3-0.4-0.6-0.2-0.3-0.4-0.6-0.1-0.4-0.3-0.7-0.1-0.1-0.1-0.3-0.1-0.1-0.2-0.3 0-0.1-0.1-0.3 0-0.1-0.1-0.3c-0.1-0.3-0.1-0.7-0.3-1q0-0.2-0.1-0.4-0.1-0.1-0.2-0.3-0.1-0.2-0.2-0.4-0.1-0.2-0.3-0.3 0-0.1-0.1-0.2-0.1-0.1-0.2-0.2-0.1-0.1-0.2-0.2-0.1-0.1-0.2-0.2 0 0 0-0.1-0.1 0-0.1 0 0-0.1-0.1-0.1 0-0.1 0-0.1z"/>
		<path id="Layer" class="s2" d="m521.2 234.1q-0.5 1-1.1 2-0.6 0.9-1.2 1.8-0.7 1-1.4 1.8-0.7 0.9-1.5 1.8-0.7 0.8-1.6 1.5-0.9 0.6-2 1.1-1 0.5-2.1 0.8-1.1 0.3-2.2 0.4"/>
		<path id="Layer" class="s1" d="m508.1 245.3c0-0.1 1-0.1 2.5-0.7q0.8-0.2 1.5-0.6 0.7-0.3 1.3-0.7 0.7-0.5 1.3-1 0.6-0.5 1.2-1 0.5-0.6 1-1.2 0.5-0.6 1-1.2 0.5-0.7 1-1.3 0.4-0.7 0.8-1.3 0.2-0.3 0.4-0.6 0.2-0.3 0.3-0.6 0.2-0.2 0.4-0.5 0.2-0.3 0.4-0.5-0.1 0.3-0.2 0.6-0.1 0.3-0.3 0.6-0.1 0.3-0.3 0.6-0.2 0.3-0.4 0.6-0.3 0.7-0.8 1.3-0.4 0.7-0.9 1.4-0.5 0.6-1 1.2-0.5 0.6-1.1 1.2-0.5 0.6-1.2 1.1-0.6 0.5-1.3 1-0.7 0.4-1.4 0.7-0.8 0.4-1.6 0.6-0.2 0.1-0.4 0.1-0.3 0.1-0.5 0.1-0.2 0.1-0.5 0.1-0.2 0-0.5 0-0.1 0-0.2 0-0.1 0-0.1 0-0.1 0-0.2 0-0.1 0-0.2 0z"/>
		<path id="Layer" class="s1" d="m522.3 241.8q-0.2 0.3-0.3 0.6-0.2 0.2-0.4 0.5-0.2 0.2-0.4 0.5-0.2 0.2-0.4 0.4-1 1.1-2.1 2.1-1.2 0.9-2.4 1.7-1.3 0.8-2.7 1.4-1.3 0.6-2.8 1-0.3 0.1-0.6 0.2-0.3 0.1-0.6 0.1-0.3 0.1-0.6 0.1-0.3 0-0.6 0.1 2-0.6 3.9-1.4 1.9-0.8 3.7-1.9 1.8-1.1 3.4-2.5 1.6-1.3 2.9-2.9z"/>
		<g id="Layer" style="opacity: .3">
			<path id="Layer" class="s3" d="m508.3 244.8q0.9 0 1.8-0.2 0.9-0.2 1.7-0.6 0.8-0.3 1.6-0.7 0.7-0.5 1.4-1.1 0.8-0.6 1.5-1.4 0.8-0.7 1.4-1.5 0.7-0.8 1.3-1.6 0.6-0.9 1.1-1.8c2.9-4.9 6.4-8.5 10.1-12.6-1 4.2-5.7 6.4-7.5 10.4-0.8 1.7-1 3.7-1.6 5.5q-0.4 1-0.9 1.8-0.6 0.9-1.2 1.6-0.7 0.7-1.5 1.3-0.8 0.6-1.7 1c-2.4 1.1-4.8 0.8-7.3-0.1"/>
		</g>
		<g id="Layer" style="opacity: .3">
			<path id="Layer" class="s3" d="m546.8 251.9c2.4 5.3 1.5 22.8 1.5 22.8l-2.3-0.7z"/>
		</g>
	</g>
	<g id="freepik--character-2--inject-7">
		<path id="Layer" class="s9" d="m316.6 228.2l-6.7-37.3c-2-9.2 1.7-18 11-19.7l0.8-0.2c2.1-0.2 4.2-0.1 6.3 0.4 2 0.6 3.9 1.4 5.6 2.7 1.7 1.2 3.2 2.7 4.3 4.5 1.2 1.7 2 3.7 2.4 5.8 1.7 8 3.4 16.8 3.9 21.2 1 9-7.8 11.5-7.8 11.5 0 0 0.8 5.4 1.3 8l3.1 5.8-7.6-0.6z"/>
		<path id="Layer" class="s10" d="m336.8 219.5c-8.8 2-13.4-4.9-12.5-4.4q1.4 0.6 2.9 1.1 1.5 0.5 3 0.7 1.6 0.3 3.1 0.3 1.6 0.1 3.1-0.1z"/>
		<path id="Layer" class="s1" d="m337.9 193.1q0 0.2 0 0.5-0.1 0.2-0.3 0.4-0.1 0.2-0.3 0.4-0.2 0.1-0.5 0.1-0.2 0.1-0.5 0-0.2 0-0.4-0.2-0.2-0.1-0.4-0.3-0.1-0.2-0.1-0.5-0.1-0.2 0-0.5 0-0.2 0.2-0.4 0.1-0.2 0.4-0.3 0.2-0.2 0.4-0.2 0.3-0.1 0.5 0 0.3 0 0.5 0.2 0.2 0.1 0.3 0.3 0.1 0.2 0.2 0.5z"/>
		<path id="Layer" class="s1" d="m338.9 188.6c-0.1 0.1-1.2-0.4-2.5-0.3-1.4 0.2-2.3 1-2.5 0.9-0.2-0.2 0-0.4 0.4-0.8q0.2-0.2 0.5-0.3 0.2-0.2 0.5-0.3 0.2-0.1 0.5-0.2 0.2-0.1 0.5-0.1 0.3 0 0.6 0 0.2 0 0.5 0.1 0.3 0 0.5 0.1 0.3 0.1 0.5 0.2c0.4 0.3 0.6 0.6 0.5 0.7z"/>
		<path id="Layer" class="s1" d="m325.7 194.6q0 0.3-0.1 0.5 0 0.3-0.2 0.5-0.1 0.2-0.3 0.3-0.3 0.1-0.5 0.2-0.2 0-0.5 0-0.2-0.1-0.4-0.2-0.3-0.1-0.4-0.4-0.1-0.2-0.2-0.4 0-0.3 0.1-0.5 0-0.3 0.2-0.5 0.1-0.2 0.3-0.3 0.3-0.1 0.5-0.2 0.2 0 0.5 0 0.2 0.1 0.4 0.2 0.3 0.2 0.4 0.4 0.1 0.2 0.2 0.4z"/>
		<path id="Layer" class="s1" d="m325.4 190.6c-0.1 0.2-1.1-0.4-2.5-0.3-1.4 0.2-2.3 1-2.5 0.9-0.2-0.2 0-0.4 0.4-0.8q0.2-0.2 0.5-0.3 0.2-0.2 0.5-0.3 0.2-0.1 0.5-0.2 0.3 0 0.5-0.1 0.3 0 0.6 0 0.2 0 0.5 0.1 0.3 0 0.5 0.1 0.3 0.1 0.5 0.2c0.4 0.3 0.6 0.6 0.6 0.7z"/>
		<path id="Layer" class="s1" d="m331.7 200.6q0.3-0.2 0.6-0.3 0.2-0.1 0.5-0.2 0.3 0 0.5-0.1 0.3-0.1 0.6-0.1c0.4-0.1 0.7-0.2 0.7-0.5q0-0.1 0-0.2 0-0.2-0.1-0.3 0-0.1-0.1-0.3-0.1-0.1-0.1-0.2l-1.4-2.5c-1.9-3.7-3.4-6.7-3.2-6.8q0.5 0.8 1 1.6 0.5 0.8 1 1.6 0.4 0.8 0.9 1.6 0.4 0.8 0.8 1.7l1.3 2.6q0.1 0.1 0.2 0.3 0.1 0.1 0.1 0.3 0.1 0.2 0.1 0.4 0 0.2 0 0.3 0 0.1-0.1 0.2 0 0.1-0.1 0.2-0.1 0.1-0.1 0.1-0.1 0.1-0.2 0.1-0.1 0-0.2 0.1 0 0-0.1 0-0.1 0-0.2 0 0 0.1-0.1 0.1-0.3 0-0.6 0.1-0.3 0-0.5 0.1-0.3 0-0.6 0-0.3 0.1-0.6 0.1z"/>
		<path id="Layer" class="s1" d="m325.4 186.2c-0.2 0.4-1.6 0.2-3.2 0.3-1.6 0.2-3 0.6-3.2 0.3-0.1-0.2 0.2-0.5 0.7-0.9q0.3-0.2 0.6-0.3 0.2-0.1 0.5-0.2 0.3-0.1 0.6-0.2 0.4 0 0.7-0.1 0.3 0 0.6 0 0.3 0 0.6 0 0.3 0.1 0.6 0.2 0.3 0 0.6 0.2c0.6 0.2 0.9 0.5 0.9 0.7z"/>
		<path id="Layer" class="s1" d="m338.5 184.5c-0.3 0.4-1.4 0.2-2.8 0.4-1.3 0.1-2.4 0.5-2.7 0.2-0.2-0.1 0-0.5 0.4-0.8q0.3-0.2 0.5-0.3 0.3-0.2 0.5-0.3 0.3-0.1 0.6-0.2 0.3 0 0.6 0 0.3-0.1 0.6-0.1 0.3 0 0.6 0 0.2 0.1 0.5 0.2 0.3 0.1 0.6 0.2c0.5 0.2 0.7 0.5 0.6 0.7z"/>
		<path id="Layer" class="s9" d="m312.9 206.3c0 0.1-6 2.3-6.9-3.8-1-6 5.3-5 5.4-5 0 0 1.5 8.6 1.5 8.7z"/>
		<path id="Layer" class="s10" d="m310.5 204.5q-0.1 0.1-0.2 0.2-0.1 0-0.3 0.1-0.1 0-0.2 0-0.2 0-0.3 0-0.4-0.1-0.7-0.3-0.4-0.3-0.7-0.6-0.2-0.3-0.4-0.7-0.1-0.4-0.2-0.8 0-0.2 0-0.4-0.1-0.2 0-0.5 0-0.2 0-0.4 0.1-0.2 0.1-0.4 0.1-0.2 0.1-0.4 0.1-0.2 0.3-0.3 0.1-0.2 0.3-0.3 0.1-0.1 0.3-0.2 0.1 0 0.2 0 0.1 0 0.1 0 0.1 0 0.2 0 0.1 0.1 0.1 0.1 0.1 0 0.1 0.1 0.1 0 0.1 0.1 0 0 0.1 0 0 0.1 0 0.1c0.1 0.3 0.1 0.4 0 0.4 0 0 0-0.1-0.1-0.3q-0.1 0-0.1-0.1-0.1-0.1-0.2-0.1-0.1 0-0.2 0-0.1 0-0.2 0-0.1 0.1-0.2 0.2-0.1 0.1-0.2 0.2-0.1 0.2-0.2 0.3 0 0.2 0 0.3-0.1 0.2-0.1 0.4 0 0.2-0.1 0.4 0 0.2 0 0.4 0.1 0.2 0.1 0.4 0 0.4 0.2 0.7 0.1 0.3 0.3 0.6 0.2 0.3 0.5 0.5 0.3 0.2 0.6 0.4 0.1 0 0.2 0 0.1 0 0.2 0 0.1 0 0.2-0.1 0.1 0 0.2-0.1c0.1-0.1 0.2-0.2 0.2-0.2 0.1 0 0 0.2-0.1 0.3z"/>
		<path id="Layer" class="s1" d="m327.6 202.1c0.2 0 0.4 1.4 1.8 2.2 1.3 0.8 2.8 0.3 2.9 0.5 0 0.2-0.3 0.4-1 0.5q-0.3 0-0.6 0-0.3 0-0.6 0-0.3-0.1-0.6-0.2-0.3-0.1-0.5-0.2-0.3-0.2-0.5-0.4-0.3-0.2-0.4-0.4-0.2-0.2-0.4-0.5-0.1-0.2-0.2-0.5c-0.1-0.6 0-1 0.1-1z"/>
		<path id="Layer" class="s1" d="m350.5 176.1q-0.3 0.3-0.7 0.5-0.3 0.2-0.7 0.4-0.4 0.1-0.8 0.2-0.4 0.1-0.8 0.1 0.2 0.1 0.4 0.2 0.2 0.1 0.3 0.3 0.2 0.1 0.3 0.3 0.1 0.2 0.1 0.4 0.1 0.3 0.1 0.7-0.1 0.3-0.2 0.6-0.2 0.3-0.4 0.5-0.2 0.2-0.5 0.4-0.3 0.1-0.7 0.1-0.3 0.1-0.6 0.1-0.3-0.1-0.6-0.2-0.3-0.1-0.6-0.3 0.1 0.1 0.2 0.2 0.2 0 0.3 0.1 0.1 0.1 0.2 0.2 0.1 0.1 0.2 0.2c0.3 0.2 0.4 0.6 0.5 1 0 0.4-0.1 0.8-0.4 1.1-0.2 0.3-0.6 0.5-1 0.6-0.4 0.1-0.8 0-1.1-0.3-0.2 0.6-0.4 1.1-0.5 1.6v0.1q0 0.1-0.1 0.2 0 0.1-0.1 0.3 0 0.1 0 0.2-0.1 0.1-0.1 0.3l-1.4 5.3c-0.5-2.5-1.3-6.9-2.1-9.5q-1.3 0.2-2.7 0-1.4-0.1-2.7-0.5-1.3-0.4-2.5-1.1-1.2-0.6-2.2-1.5c-1.6-1.4-3-3.1-5-3.7-2.5-0.8-5.2 0.5-7.6 1.7l0.1-0.1q-0.5 0.3-0.9 0.6-0.4 0.4-0.8 0.8-0.4 0.3-0.7 0.7-0.4 0.5-0.7 0.9 0.5 1.8 0.8 3.7 0.3 1.9 0.4 3.8 0.1 1.8 0 3.7-0.1 1.9-0.4 3.8c-0.1 0.8-0.8 3.6-1.5 4-1.3 0.7-1.1-1.2-2.3-1.4-0.8-0.1-1.2 0.1-2.8 0.3-0.8-1.4-1.9-5.5-2.7-7.7q-0.3 0.1-0.6 0.2-0.3 0.2-0.7 0.2-0.3 0.1-0.6 0.1-0.3 0.1-0.7 0.1 0.3-1 0.5-2-0.1 0.1-0.2 0.2-0.1 0.1-0.2 0.1-0.2 0.1-0.3 0.2-0.1 0.1-0.3 0.1-0.1 0.1-0.3 0.1-0.1 0-0.3 0-0.1-0.1-0.2-0.2-0.2 0-0.3-0.2c-0.3-0.4 0-1 0.2-1.5q0-0.2 0.1-0.4 0.1-0.2 0.2-0.5 0-0.2 0.1-0.4 0-0.2 0.1-0.5-0.3 0-0.5 0-0.3 0-0.6-0.1-0.2-0.1-0.5-0.2-0.2-0.1-0.4-0.2c-0.3-0.1-0.5-0.3-0.5-0.5 0-0.3 0.2-0.5 0.4-0.7q0.4-0.3 0.8-0.7 0.4-0.5 0.8-0.9 0.3-0.5 0.6-1 0.3-0.5 0.5-1 0-0.2 0-0.4c0.3-2.5 1.3-5.2 3.5-6.4h0.1c2-1.2 4.6-1.6 6.6-0.4-0.1-3.3 2.3-6.2 5.3-7.5q1.3-0.5 2.7-0.8 1.4-0.3 2.9-0.4 1.4-0.1 2.8-0.1 1.4 0.1 2.8 0.4 1 0.3 1.9 0.7 0.9 0.3 1.8 0.8 0.9 0.5 1.7 1 0.9 0.6 1.6 1.2l1.1 0.8 0.1 0.1q0.3 0.1 0.6 0.2 0.3 0 0.6 0.1 0.3 0 0.6 0 0.3 0 0.6 0 0.5 0 0.9-0.1 0.4-0.2 0.8-0.4 0.4-0.2 0.7-0.6 0.3-0.3 0.5-0.7c0.3-0.3 0.5-0.8 1-0.7q0.1 0 0.2 0 0 0.1 0.1 0.2 0.1 0 0.1 0.1 0.1 0.1 0.1 0.2 0.3 0.5 0.3 1 0.1 0.5 0 1.1 0 0.5-0.2 1-0.2 0.5-0.6 0.9-0.1 0.2-0.3 0.4-0.2 0.2-0.3 0.3-0.2 0.2-0.4 0.4-0.2 0.1-0.4 0.3 0.7 0.2 1.4 0.4 0.7 0.1 1.4 0.2 0.8 0.1 1.5 0 0.7 0 1.5-0.1 0.3 0 0.6-0.1 0.2 0 0.5 0 0.3 0 0.6 0 0.3 0.1 0.6 0.1 0.2 0.1 0.3 0.2 0.1 0 0.2 0.1 0.1 0.1 0.2 0.2 0.1 0.1 0.1 0.3c0.4 0.7-0.2 1.4-0.8 1.8z"/>
		<path id="Layer" class="s2" d="m315.7 173.7q-0.1 0.1-0.2 0.2-0.1 0.1-0.2 0.2-0.1 0.2-0.2 0.3-0.1 0.1-0.2 0.2-0.2 0.4-0.4 0.8-0.1 0.4-0.2 0.8-0.1 0.4-0.2 0.8-0.1 0.4-0.1 0.8 0 0.3 0 0.6 0 0.3 0 0.6 0 0.3 0.1 0.6 0 0.3 0 0.6 0.2 1.2 0.6 2.6 0.1 0.3 0.1 0.7 0.1 0.4 0.2 0.7 0 0.4 0.1 0.8 0.1 0.3 0.1 0.7 0 0.2 0 0.4 0 0.2 0 0.4 0 0.2 0 0.4 0 0.2 0 0.4 0 0.2 0 0.4 0 0.2-0.1 0.4 0 0.2-0.1 0.4-0.1 0.2-0.2 0.4-0.1 0.1-0.2 0.2-0.2 0.2-0.3 0.2-0.2 0.1-0.3 0.2-0.2 0-0.4 0-0.2 0-0.3 0-0.2-0.1-0.4-0.1-0.1-0.1-0.3-0.2-0.1-0.1-0.2-0.2-0.2-0.2-0.4-0.4-0.2-0.3-0.4-0.6-0.1-0.2-0.3-0.5-0.1-0.3-0.2-0.6h0.2q0 0.2-0.1 0.5-0.1 0.3-0.2 0.5-0.1 0.3-0.2 0.5-0.1 0.2-0.3 0.5-0.1 0.2-0.3 0.4-0.1 0.2-0.3 0.3-0.2 0.2-0.4 0.3-0.3 0.1-0.5 0.2-0.1 0-0.2 0.1-0.2 0-0.3 0-0.1 0-0.2 0-0.1-0.1-0.3-0.1-0.1 0-0.2-0.1-0.1 0-0.2-0.1 0-0.1-0.1-0.1-0.1-0.1-0.2-0.2 0-0.1-0.1-0.2 0-0.1-0.1-0.2 0-0.1 0-0.2-0.1-0.1-0.1-0.2 0-0.1 0-0.2 0-0.1 0-0.2 0.1-0.1 0.1-0.1 0-0.1 0.1-0.2h0.1q-0.2 0.3-0.4 0.5-0.1 0.3-0.4 0.5-0.2 0.2-0.4 0.4-0.2 0.2-0.5 0.4-0.1 0-0.1 0.1-0.1 0-0.2 0.1 0 0-0.1 0-0.1 0.1-0.1 0.1l-0.3 0.1q0.1 0 0.1 0 0-0.1 0-0.1 0.1 0 0.1 0 0 0 0 0 0.2-0.1 0.6-0.4 0.2-0.1 0.4-0.3 0.3-0.2 0.5-0.5 0.2-0.2 0.4-0.4 0.1-0.3 0.3-0.5h0.1q-0.1 0.2-0.1 0.4-0.1 0.2 0 0.3 0 0.2 0.1 0.4 0 0.2 0.2 0.3 0 0.1 0.1 0.1 0.1 0.1 0.1 0.2 0.1 0 0.2 0.1 0.1 0 0.2 0 0.1 0.1 0.2 0.1 0.1 0 0.2 0 0.1 0 0.2 0 0.2 0 0.3 0 0.2-0.1 0.4-0.2 0.2-0.1 0.4-0.3 0.2-0.1 0.4-0.3 0.1-0.2 0.2-0.4 0.2-0.2 0.3-0.5 0.1-0.2 0.2-0.5 0.1-0.2 0.2-0.5 0-0.2 0.1-0.5l0.1-0.3 0.1 0.3q0.1 0.3 0.2 0.6 0.1 0.2 0.2 0.5 0.2 0.2 0.4 0.5 0.1 0.2 0.4 0.4 0.1 0.1 0.2 0.2 0.1 0 0.3 0.1 0.1 0.1 0.3 0.1 0.1 0 0.3 0 0.1 0 0.3 0 0.1 0 0.2-0.1 0.2-0.1 0.3-0.2 0.1-0.1 0.2-0.2 0.1-0.2 0.1-0.4 0.1-0.1 0.1-0.3 0.1-0.2 0.1-0.4 0-0.2 0-0.4 0-0.2 0.1-0.4 0-0.2 0-0.4 0-0.2 0-0.4-0.1-0.2-0.1-0.4 0-0.3-0.1-0.7 0-0.3-0.1-0.7 0-0.4-0.1-0.7-0.1-0.4-0.2-0.8-0.3-1.3-0.5-2.6 0-0.3-0.1-0.6 0-0.3 0-0.6 0-0.3 0-0.5 0-0.3 0-0.6 0-0.5 0.1-0.9 0.1-0.4 0.2-0.8 0.1-0.4 0.3-0.8 0.2-0.4 0.4-0.8 0.1-0.1 0.2-0.2 0.1-0.1 0.2-0.2 0.1-0.1 0.2-0.2 0.1-0.2 0.2-0.2z"/>
		<path id="Layer" class="s2" d="m344.7 178.1l-0.2 0.2q-0.2 0.2-0.4 0.3 0 0.1-0.1 0.1 0 0.1-0.1 0.1-0.1 0.1-0.1 0.1-0.1 0.1-0.2 0.1-0.4 0.3-0.8 0.5-0.5 0.2-0.9 0.4-0.5 0.1-1 0.2-0.5 0.1-1 0.2-0.7 0.1-1.5 0-0.7 0-1.4-0.2-0.7-0.1-1.4-0.4-0.7-0.2-1.4-0.6-0.8-0.4-1.5-0.9-0.8-0.5-1.5-1.1-0.7-0.6-1.3-1.2-0.6-0.7-1.2-1.4c-0.8-1-1.5-2-2.2-2.9q-0.3-0.4-0.6-0.7-0.3-0.3-0.6-0.6-0.3-0.3-0.6-0.6-0.3-0.3-0.7-0.5-0.3-0.3-0.6-0.5-0.3-0.2-0.7-0.3-0.4-0.2-0.7-0.3-0.4-0.1-0.8-0.1-0.2 0-0.3 0-0.2-0.1-0.4 0-0.1 0-0.3 0-0.2 0-0.4 0-0.1 0.1-0.3 0.1-0.1 0.1-0.3 0.1-0.1 0.1-0.3 0.1-0.1 0.1-0.3 0.2-0.4 0.2-0.8 0.5-0.4 0.3-0.7 0.7-0.3 0.3-0.6 0.8-0.2 0.4-0.4 0.9 0 0.1-0.1 0.3 0 0.2 0 0.3-0.1 0.2-0.1 0.4 0 0.2 0 0.4c0 0.1 0 0 0-0.1v-0.3q0-0.1 0-0.3 0-0.1 0-0.2 0.1-0.2 0.1-0.3 0-0.1 0.1-0.3 0-0.2 0.1-0.4 0.1-0.2 0.2-0.4 0.1-0.2 0.2-0.3 0.1-0.2 0.3-0.4 0.1-0.2 0.3-0.4 0.2-0.2 0.4-0.4 0.2-0.2 0.5-0.4 0.2-0.1 0.5-0.3 0.1 0 0.3-0.1 0.1-0.1 0.3-0.1 0.1-0.1 0.3-0.1 0.1-0.1 0.3-0.1 0.2-0.1 0.4-0.1 0.1 0 0.3 0 0.2 0 0.4 0 0.2 0 0.4 0 0.3 0.1 0.7 0.2 0.4 0.1 0.8 0.2 0.4 0.2 0.7 0.4 0.3 0.2 0.7 0.4 0.3 0.2 0.7 0.5 0.3 0.3 0.6 0.6 0.3 0.3 0.6 0.7 0.3 0.3 0.5 0.6c0.8 1 1.5 2 2.3 3q0.6 0.7 1.2 1.3 0.6 0.7 1.3 1.2 0.7 0.6 1.4 1.1 0.7 0.5 1.5 1 0.6 0.3 1.3 0.6 0.7 0.2 1.4 0.4 0.7 0.1 1.5 0.1 0.7 0.1 1.4 0 0.5 0 1-0.1 0.5-0.1 0.9-0.2 0.5-0.2 0.9-0.4 0.5-0.2 0.9-0.5c0.8-0.5 1.1-0.9 1.1-0.8z"/>
		<path id="Layer" class="s2" d="m345 174q0 0-0.1 0.1 0 0 0 0-0.1 0.1-0.1 0.1-0.1 0-0.1 0.1-0.1 0.1-0.2 0.1-0.1 0.1-0.2 0.2-0.1 0.1-0.2 0.2-0.2 0-0.3 0.1-0.1 0.1-0.3 0.2-0.2 0.1-0.4 0.2-0.1 0.1-0.3 0.2-0.2 0.1-0.4 0.1-0.2 0.1-0.5 0.2-0.2 0.1-0.4 0.1-0.3 0.1-0.5 0.2-0.2 0-0.5 0.1-0.2 0-0.5 0.1-0.2 0-0.5 0-0.2 0-0.5 0-0.2 0.1-0.5 0-0.2 0-0.4 0-0.2 0-0.4 0-0.2 0-0.4 0-0.2-0.1-0.4-0.1-0.1 0-0.2-0.1-0.2 0-0.3 0-0.1-0.1-0.3-0.1-0.1 0-0.2-0.1-0.4-0.1-0.4-0.1c0-0.1 0.6 0.1 1.4 0.2q0.2 0.1 0.4 0.1 0.2 0 0.4 0 0.2 0 0.4 0 0.2 0.1 0.4 0.1 0.3 0 0.5-0.1 0.2 0 0.5 0 0.2 0 0.5-0.1 0.2 0 0.4 0 0.3-0.1 0.5-0.1 0.2-0.1 0.5-0.2 0.2 0 0.4-0.1 0.3-0.1 0.5-0.2 0.2 0 0.4-0.1 0.1-0.1 0.3-0.2 0.2 0 0.4-0.1 0.1-0.1 0.3-0.2c0.8-0.5 1.2-0.8 1.3-0.8z"/>
		<path id="Layer" class="s9" d="m429.1 287.5l3.4-0.6q0.5-0.4 0.9-0.8 0.4-0.3 0.9-0.7 0.4-0.4 0.9-0.7 0.4-0.3 0.9-0.6c2-1.2 3.8-1.2 4.3-0.2q0.1 0.4 0.2 0.8 0 0.5-0.1 0.9-0.1 0.4-0.3 0.7-0.3 0.4-0.6 0.7c-1 0.9-4.9 2-5.1 3.6-0.3 1.7 12.3 7 12.3 7l-9.9 11.3-14.4-7.7-0.7-1.1-0.1-3.1z"/>
		<path id="Layer" class="s1" d="m333.6 302.9l47.1-8 8.2 7.2c0 0 16 56.5 17 63.8 1 7.2-8.9 63-8.9 63l-24.2-1.3 7.8-49.1-0.4-7.9-13.5-33.9c0 0-8.2 42.9-9.8 49.3-1.6 6.3-22 64.3-22 64.3l-20.8 1c-0.4-21.2 17.4-72.4 17.4-72.4l1.5-8.9-4.4-51.4z"/>
		<path id="Layer" class="s1" d="m394.8 413.9l-0.8 20.6c0 0 19.6 7.8 19.8 11.6l-37.9-0.1-0.1-32.2z"/>
		<path id="Layer" class="s7" d="m382.2 432.7c0.6-0.3 1.6 0.3 1.9 1q0.1 0.4 0 0.7 0 0.3-0.2 0.6-0.2 0.2-0.4 0.4-0.2 0.2-0.5 0.3-0.3 0.1-0.6 0-0.3 0-0.5-0.2-0.3-0.1-0.5-0.4-0.1-0.2-0.2-0.5 0-0.3 0-0.6 0.1-0.3 0.2-0.5 0.2-0.3 0.4-0.5 0.2-0.2 0.5-0.3"/>
		<path id="Layer" class="s2" d="m375.9 446l0.1-3.3 36.4 1.3c0 0 1.6 0.8 1.4 2z"/>
		<path id="Layer" class="s8" d="m394.6 434.3c0 0.2-0.9 0.3-1.8 0.9-0.9 0.7-1.4 1.5-1.6 1.4-0.2-0.1 0.1-1.2 1.2-2 1.2-0.7 2.3-0.5 2.2-0.3z"/>
		<path id="Layer" class="s8" d="m398.6 436.1c0 0.1-0.8 0.5-1.4 1.3-0.6 0.8-0.8 1.7-1 1.7-0.2 0-0.3-1.1 0.5-2.1 0.8-1 1.9-1.1 1.9-0.9z"/>
		<path id="Layer" class="s8" d="m400.9 441.1c-0.2 0-0.5-1 0-2 0.5-1.1 1.4-1.5 1.4-1.3 0.1 0.1-0.4 0.7-0.8 1.6-0.4 0.8-0.5 1.7-0.6 1.7z"/>
		<path id="Layer" class="s8" d="m394.3 429.6c-0.1 0.2-0.9-0.1-2 0-1.1 0.1-1.9 0.4-2 0.2-0.1-0.1 0.7-0.8 1.9-0.9 1.3-0.1 2.2 0.5 2.1 0.7z"/>
		<path id="Layer" class="s1" d="m332.9 435.6l0.1 23.7 5.6 18.6q0.1 0.5 0 1 0 0.5-0.3 1-0.2 0.4-0.6 0.7-0.4 0.3-0.9 0.4-0.3 0.1-0.6 0.1-0.3 0-0.6-0.1-0.3-0.1-0.5-0.2-0.3-0.2-0.5-0.4c-3.7-3.3-17.3-15.7-17.2-17.5 0.1-2-1.8-24.9-1.8-24.9z"/>
		<path id="Layer" class="s2" d="m336.7 481q-0.3 0.1-0.6 0.1-0.3 0-0.6-0.1-0.2-0.1-0.5-0.2-0.3-0.2-0.5-0.4c-10.3-9.4-14.7-14-16.2-15.7q-0.2-0.3-0.4-0.5-0.2-0.3-0.3-0.6-0.1-0.3-0.2-0.6 0-0.3-0.1-0.7v-1l19.5 19.7z"/>
		<g id="Layer" style="opacity: .6">
			<path id="Layer" class="s8" d="m322 453.6q0.2 0.1 0.4 0.3 0.1 0.3 0.2 0.5 0 0.3 0 0.6 0 0.2-0.2 0.5-0.1 0.2-0.3 0.3-0.2 0.2-0.5 0.3-0.3 0-0.5 0-0.3 0-0.5-0.2-0.3-0.1-0.4-0.4-0.2-0.2-0.2-0.5-0.1-0.3-0.1-0.5 0.1-0.3 0.2-0.6 0.2-0.2 0.4-0.3 0.3-0.2 0.5-0.2 0.3 0 0.6 0 0.3 0.1 0.5 0.3"/>
		</g>
		<path id="Layer" class="s8" d="m331.3 469.9q0.1-0.2 0.3-0.4 0.1-0.2 0.3-0.4 0.2-0.2 0.4-0.4 0.3-0.1 0.5-0.2 0.3-0.2 0.5-0.3 0.3-0.1 0.5-0.1 0.3-0.1 0.6-0.1 0.2 0 0.5 0c0.6 0.1 0.9 0.3 0.9 0.3q-0.4 0-0.7 0.1-0.4 0-0.7 0.1-0.4 0.1-0.7 0.2-0.3 0.1-0.7 0.2c-1.3 0.7-1.8 2-2 1.9 0 0 0-0.3 0.3-0.8z"/>
		<path id="Layer" class="s8" d="m334.7 472.4q0.3-0.2 0.6-0.2 0.4-0.1 0.7-0.1 0.3 0 0.6 0.1 0.3 0.1 0.6 0.3-0.3 0-0.6 0.1-0.3 0-0.6 0-0.2 0.1-0.5 0.1-0.3 0.1-0.6 0.2-0.3 0.1-0.5 0.2-0.3 0.1-0.6 0.3-0.2 0.1-0.5 0.2-0.2 0.2-0.5 0.3c-0.1 0 0.6-1.1 1.9-1.5z"/>
		<path id="Layer" class="s8" d="m329.1 465.5q0.7-0.6 1.6-1 0.8-0.4 1.8-0.5 0.9-0.1 1.9 0-0.5 0.1-0.9 0.2-0.5 0.1-0.9 0.2-0.4 0.2-0.9 0.3-0.4 0.1-0.8 0.3-0.4 0.2-0.8 0.4-0.4 0.2-0.8 0.5-0.4 0.2-0.8 0.4-0.3 0.3-0.7 0.6 0.5-0.8 1.3-1.4z"/>
		<path id="Layer" class="s8" d="m327.8 459.2q0.4-0.2 0.8-0.3 0.4-0.2 0.8-0.3 0.4 0 0.8 0 0.4-0.1 0.8-0.1 0.4 0 0.8 0.1 0.4 0.1 0.8 0.2 0.4 0.2 0.7 0.4c0 0.2-1.4-0.2-3.1-0.1-1.7 0.1-3 0.7-3.1 0.6q0.4-0.3 0.7-0.5z"/>
		<path id="Layer" class="s8" d="m327.7 452.1q0.6-0.3 1.2-0.4 0.6-0.2 1.2-0.2 0.6 0 1.2 0.2 0.6 0.1 1.2 0.4c0.5 0.3 0.8 0.6 0.8 0.6q-0.4-0.1-0.8-0.2-0.4-0.1-0.8-0.2-0.4-0.1-0.8-0.2-0.4 0-0.8-0.1-0.4 0.1-0.8 0.1-0.4 0.1-0.8 0.2-0.4 0.1-0.8 0.2-0.4 0.1-0.8 0.2c0 0 0.3-0.3 0.8-0.6z"/>
		<path id="Layer" class="s2" d="m317.2 237.1l9.7 22.4 14.8 38.8-5.6 10.3c0 0-7 3.6-8.5 2.7-3.7-2.1-14.4-33.6-25.6-56-9.2-18.3 3.5-25.9 3.5-25.9z"/>
		<path id="Layer" class="s2" d="m314.9 222.1c0 0 10 2.5 14.7 2.2 5.7-0.3 7.8-4.1 7.8-4.1l1.8 1.9 14 1c0 0 5.2 7.9 10.1 15.8 4.9 7.9 13.2 26.5 13.2 26.5l8.4 20.4 6.3 18.2-1.9 2.5-57.3 8-5.5-3.2 3.5-38.6-24.5-43.3 9.2-6z"/>
		<path id="Layer" class="s2" d="m421.7 297l-5.7 0.8c0 0-24.1-15.5-28.1-19.4-4-3.9-28.7-24.4-28.7-24.4 0 0-12-28.9-6-30.9 4.9-1.6 13.4 6.6 13.4 6.6 0 0 23.4 24.6 26.1 27.7 2.8 3.2 36.4 30.1 36.4 30.1z"/>
		<path id="Layer" class="s1" d="m320.1 246.7q0 0 0.1 0.1 0 0.1 0 0.1 0 0.1 0.1 0.1 0 0.1 0 0.2 0.3 0.6 0.7 1.5c0.5 1.3 1.3 3.2 2.3 5.5 2 4.7 4.8 11 8 18.1 3.1 7.1 5.9 13.5 7.7 18.2 0.9 2.4 1.6 4.3 2 5.6q0.3 1 0.5 1.6 0.1 0.1 0.1 0.1 0 0.1 0 0.2 0.1 0 0.1 0.1 0 0.1 0 0.2 0-0.1-0.1-0.2 0 0 0-0.1-0.1-0.1-0.1-0.1 0-0.1-0.1-0.2l-0.6-1.5c-0.5-1.3-1.2-3.2-2.2-5.5-1.9-4.7-4.6-11.1-7.8-18.2-3.2-7-6-13.4-7.9-18.1-0.9-2.4-1.6-4.3-2.1-5.6q-0.3-1-0.6-1.6 0 0 0-0.1 0-0.1-0.1-0.1 0-0.1 0-0.2 0-0.1 0-0.1z"/>
		<path id="Layer" class="s1" d="m361.2 235.7q0 0 0.3 0.3 0.1 0.1 0.2 0.2 0.1 0.2 0.2 0.3 0.1 0.1 0.2 0.2 0.1 0.2 0.2 0.3c0.6 0.9 1.3 2.2 2.2 3.8 1.8 3.3 4.2 7.9 6.7 13 2.4 5.1 4.6 9.8 6.1 13.2 0.8 1.7 1.4 3.1 1.8 4.1q0.1 0.2 0.1 0.4 0.1 0.1 0.2 0.3 0.1 0.2 0.1 0.4 0.1 0.2 0.2 0.4-0.2-0.2-0.3-0.3-0.1-0.2-0.2-0.4-0.1-0.2-0.2-0.4 0-0.1-0.1-0.3l-1.9-4-6.3-13.2c-2.5-5.1-4.8-9.7-6.5-13-0.9-1.7-1.6-3-2.1-3.9-0.6-0.9-0.9-1.3-0.9-1.4z"/>
		<g id="Layer" style="opacity: .3">
			<path id="Layer" class="s3" d="m327.8 265c-0.1 0-2.4-13.3-1.1-21.1 1.4-7.8 5.4-19.1 5.4-19.1l7-3 36.5 17.7 2.6 3.2-4.8 15.4 3.6 28z"/>
		</g>
		<path id="Layer" fill-rule="evenodd" class="s4" d="m336.5 241.6c2.8-50.1 30.9-77.1 66.7-75.2 35.9 2 60.8 31.9 58 82-2.7 50.2-30.7 77.2-66.6 75.2-35.8-2-60.8-31.8-58.1-82zm90.8 5c1.9-34.5-9-49.5-25.8-50.4-16.6-0.9-29 12.8-30.9 47.3-1.9 34.5 9 49.5 25.6 50.4 16.9 0.9 29.3-12.8 31.1-47.3z"/>
		<g id="Layer" style="opacity: .3">
			<path id="Layer" fill-rule="evenodd" class="s3" d="m336.5 241.6c2.8-50.1 30.9-77.1 66.7-75.2 35.9 2 60.8 31.9 58 82-2.7 50.2-30.7 77.2-66.6 75.2-35.8-2-60.8-31.8-58.1-82zm90.8 5c1.9-34.5-9-49.5-25.8-50.4-16.6-0.9-29 12.8-30.9 47.3-1.9 34.5 9 49.5 25.6 50.4 16.9 0.9 29.3-12.8 31.1-47.3z"/>
		</g>
		<path id="Layer" fill-rule="evenodd" class="s4" d="m326.2 241.7c2.8-50.2 30.9-77.2 66.6-75.2 36 2 60.9 31.8 58.1 82-2.7 50.1-30.7 77.1-66.6 75.2-35.8-2-60.8-31.9-58.1-82zm90.8 5c1.9-34.5-9-49.5-25.8-50.4-16.6-0.9-29 12.7-30.9 47.3-1.9 34.5 9 49.4 25.6 50.4 16.8 0.8 29.3-12.9 31.1-47.4z"/>
		<path id="Layer" class="s9" d="m364 318.3q0 0.4-0.3 0.7-0.2 0.3-0.5 0.5-0.3 0.3-0.7 0.3c-1.2 0.4-12.9 0.2-13.3 0-0.3-0.2-11.3-4.3-12.2-6l5.3-10.1c0 0 2.5-2.4 4.3-2.8 1.8-0.4 2.9-1.5 3.1-2.3 0.1-0.8 0.8-1.8 1.5-1.5 0.7 0.3 2.6 2 2.2 3.8-0.3 1.7-3.1 3.8-3.1 4.7q0 0.5 0 0.9 0.1 0.4 0.2 0.8 0.1 0.4 0.2 0.8 0.2 0.4 0.4 0.8c0.3 0.6 6.7 4.8 6.7 4.8l6.2 3.8q0.1 0.4 0 0.8z"/>
		<path id="Layer" class="s9" d="m451.5 296.4c0.1 1.7-3.3 1.6-3.3 1.6 0.4 0.8-1.4 2.8-2.6 2.4 0.3 0.6 0.7 0.8 0.6 1.5q0 0.2-0.1 0.5-0.1 0.2-0.2 0.4-0.1 0.2-0.3 0.4-0.2 0.2-0.4 0.3-0.2 0.2-0.5 0.2-0.2 0.1-0.5 0-0.2 0-0.4-0.1-0.3-0.1-0.4-0.3 0 0.4 0 0.8 0 0.4-0.2 0.7-0.1 0.4-0.3 0.7-0.3 0.3-0.6 0.5-0.2 0.1-0.4 0.2-0.2 0.1-0.5 0.2-0.2 0-0.4 0-0.3 0-0.5 0-0.1-0.1-0.2-0.1-0.1 0-0.2-0.1-0.1 0-0.3 0-0.1-0.1-0.2-0.1 0-0.1 0-0.1-0.1 0-0.1 0 0-0.1-0.1-0.1 0 0 0 0-0.1-0.1-0.1-0.1 0 0 0 0 0 0 0 0 0-0.1 0-0.1c-0.1-0.2-0.1-0.5-0.2-0.7l-0.1-0.3q-0.1-0.1-0.2-0.3-0.1-0.1-0.2-0.2-0.1-0.2-0.2-0.3-0.1-0.1-0.2-0.3 0 0-0.1-0.1 0 0-0.1-0.1 0 0-0.1-0.1 0-0.1-0.1-0.1 0-0.1 0-0.1-0.1 0-0.1-0.1 0 0 0-0.1 0 0 0-0.1-0.2-0.3-0.4-0.5-0.1-0.3-0.4-0.5-0.2-0.3-0.4-0.5-0.2-0.2-0.5-0.4-0.3-0.2-0.5-0.5-0.3-0.2-0.5-0.5-0.2-0.3-0.3-0.6-0.2-0.3-0.3-0.7-0.1-0.3-0.1-0.6 0-0.4 0.2-0.7 0.2-0.3 0.4-0.5 0.3-0.3 0.6-0.4-0.1-0.1-0.3-0.3-0.1-0.2-0.1-0.4-0.1-0.2 0-0.5 0-0.2 0.1-0.4 0.1-0.2 0.3-0.3 0.2-0.2 0.4-0.3 0.2-0.1 0.4-0.1 0.2-0.1 0.4-0.1 0.2 0 0.5 0.1 0.2 0 0.4 0.1 0.2 0 0.4 0.1 0.2 0.1 0.4 0.2-0.2-0.2-0.3-0.4-0.1-0.3-0.1-0.5 0-0.3 0.1-0.5 0.1-0.3 0.3-0.5 0.2-0.1 0.4-0.3 0.3-0.1 0.5-0.2 0.3 0 0.5 0 0.3 0 0.5 0.1 0.3 0 0.5 0.1 0.3 0.1 0.5 0.2 0.3 0.2 0.5 0.3 0.2 0.2 0.4 0.4c0.5 0.4 2.9 2.1 3.5 2.5l1.4-1.4 0.2-0.2c1.2 0.5 1.6 0.5 2.6 0.9 0.9 0.3 1.6 0.7 1.6 1.4z"/>
		<path id="Layer" class="s9" d="m438.4 308.2q-0.2 0.1-0.3 0.3-0.2 0.1-0.4 0.2-0.2 0.1-0.4 0.2-0.2 0-0.4 0-0.3-0.1-0.6-0.2-0.3-0.1-0.6-0.3-0.3-0.2-0.5-0.4-0.2-0.2-0.4-0.4c-0.2-0.2 1.2-1.6 1.2-1.6l0.3-0.4c0.1-0.4-0.6-1-0.8-1.3q-0.1-0.3-0.1-0.6 0-0.3 0.1-0.6 0.1-0.3 0.3-0.5 0.2-0.2 0.5-0.3 0.3-0.2 0.6-0.2 0.3 0 0.6 0 0.2 0.1 0.5 0.2 0.3 0.2 0.5 0.3 0.2 0.3 0.4 0.5 0.2 0.2 0.3 0.5 0.1 0.3 0.2 0.5 0.1 0.3 0.1 0.6 0 0.5 0 1-0.1 0.4-0.2 0.9-0.2 0.4-0.4 0.8-0.2 0.4-0.5 0.8z"/>
		<path id="Layer" class="s10" d="m441.4 301.9q-1-0.9-2-1.8-1-0.8-2-1.8-0.9-0.9-1.8-1.9 0.5 0.4 1.1 0.8 0.5 0.4 1 0.8 0.6 0.4 1.1 0.8 0.5 0.5 1 0.9 0.5 0.5 1 0.9 0.5 0.4 1 0.9 0.4 0.5 0.9 1 0.4 0.5 0.9 1-1.1-0.8-2.2-1.6z"/>
		<path id="Layer" class="s10" d="m444.8 299.8q-0.5-0.4-0.9-0.8-0.5-0.4-1-0.7-0.4-0.4-0.9-0.9-0.5-0.3-0.9-0.7-0.5-0.4-1-0.7-0.4-0.4-0.9-0.8-0.4-0.4-0.9-0.8 0.6 0.2 1.1 0.5 0.5 0.3 1.1 0.6 0.5 0.4 0.9 0.7 0.5 0.4 1 0.8 0.5 0.4 0.9 0.8 0.5 0.4 0.9 0.8 0.4 0.5 0.8 0.9 0.4 0.5 0.8 1-0.5-0.4-1-0.7z"/>
		<path id="Layer" class="s10" d="m447.1 297.1q-0.4-0.3-0.8-0.6-0.5-0.3-0.8-0.6-0.4-0.3-0.8-0.6-0.4-0.3-0.8-0.6-0.4-0.3-0.8-0.6-0.4-0.4-0.7-0.7-0.4-0.4-0.7-0.8 0.4 0.3 0.9 0.5 0.4 0.2 0.8 0.5 0.4 0.3 0.8 0.6 0.4 0.3 0.8 0.6 0.4 0.3 0.8 0.6 0.4 0.3 0.8 0.7 0.4 0.3 0.7 0.7 0.3 0.4 0.6 0.8-0.4-0.3-0.8-0.5z"/>
		<path id="Layer" class="s10" d="m439.1 306.2q0-0.2 0-0.5 0-0.2 0-0.4 0-0.3-0.1-0.5-0.1-0.3-0.2-0.5-0.1-0.2-0.2-0.4-0.2-0.3-0.3-0.5-0.1-0.2-0.3-0.4-0.1-0.2-0.3-0.4c-0.3-0.4-0.6-0.4-0.7-0.5 0 0 0.4-0.2 1 0.2q0.2 0.2 0.4 0.4 0.1 0.2 0.3 0.4 0.2 0.3 0.3 0.5 0.2 0.2 0.3 0.5 0.1 0.2 0.2 0.5 0.1 0.3 0.1 0.6 0 0.3 0 0.6 0 0.3-0.1 0.5c-0.2 0.6-0.6 0.8-0.6 0.8-0.1-0.1 0.1-0.3 0.2-0.9z"/>
	</g>
	<g id="freepik--character-1--inject-7">
		<path id="Layer" class="s1" d="m217.8 424.6l-3.2 19c0 0 19.1 7.8 19.3 11.5l-37.1-0.6 4.6-31.2z"/>
		<path id="Layer" class="s7" d="m203 441.8q0.3-0.1 0.6-0.1 0.3 0 0.6 0.2 0.2 0.1 0.4 0.3 0.2 0.3 0.3 0.6 0.1 0.3 0 0.6 0 0.3-0.2 0.5-0.2 0.3-0.4 0.5-0.2 0.2-0.5 0.3-0.3 0-0.6 0-0.3-0.1-0.5-0.3-0.2-0.1-0.4-0.4-0.1-0.2-0.2-0.5-0.1-0.3 0-0.5 0-0.3 0.2-0.6 0.1-0.2 0.4-0.4 0.2-0.2 0.5-0.3"/>
		<path id="Layer" class="s2" d="m196.8 454.6l0.4-3.2 35.2 1.7c0 0 1.7 0.8 1.5 2z"/>
		<path id="Layer" class="s8" d="m215.2 443.4c0 0.2-0.9 0.3-1.8 0.9-0.9 0.6-1.4 1.4-1.5 1.3-0.2-0.1 0.1-1.2 1.2-1.9 1.1-0.7 2.2-0.5 2.1-0.3z"/>
		<path id="Layer" class="s8" d="m219.1 445.2c0 0.1-0.8 0.5-1.4 1.3-0.6 0.7-0.8 1.6-1 1.6-0.2 0-0.3-1.1 0.5-2.1 0.8-1 1.9-1 1.9-0.8z"/>
		<path id="Layer" class="s8" d="m221.2 450.1c-0.1 0-0.4-0.9 0.1-2 0.5-1.1 1.3-1.4 1.4-1.3 0.1 0.2-0.5 0.7-0.8 1.6-0.4 0.9-0.5 1.7-0.7 1.7z"/>
		<path id="Layer" class="s8" d="m215 438.8c-0.1 0.2-0.9-0.1-1.9-0.1-1.1 0.1-1.9 0.4-1.9 0.3-0.1-0.2 0.6-0.9 1.8-0.9 1.2-0.1 2 0.5 2 0.7z"/>
		<path id="Layer" class="s1" d="m164.2 427.6l-9.8 17.5c0 0 13.6 15.5 12.1 18.9l-33-17 14.3-28z"/>
		<path id="Layer" class="s7" d="m144.8 438.3c0.8 0 1.4 1 1.3 1.8q-0.1 0.3-0.3 0.5-0.2 0.2-0.4 0.4-0.3 0.2-0.6 0.3-0.3 0-0.6 0-0.2-0.1-0.5-0.3-0.2-0.2-0.3-0.4-0.2-0.3-0.2-0.5 0-0.3 0-0.6 0.1-0.3 0.3-0.5 0.2-0.2 0.4-0.4 0.2-0.1 0.5-0.2 0.3-0.1 0.6 0"/>
		<path id="Layer" class="s2" d="m133.5 447l1.6-2.8 31 17.4c0 0 1.1 1.4 0.4 2.4z"/>
		<path id="Layer" class="s8" d="m155 445.2c-0.1 0.2-0.9-0.1-2 0-1.1 0.2-1.9 0.7-2 0.5-0.1-0.1 0.6-1 1.9-1.1 1.3-0.2 2.2 0.5 2.1 0.6z"/>
		<path id="Layer" class="s8" d="m157.7 448.5c-0.1 0.2-0.9 0.2-1.8 0.6-0.9 0.4-1.5 1.1-1.6 1-0.2-0.1 0.2-1.1 1.3-1.6 1.2-0.6 2.2-0.1 2.1 0z"/>
		<path id="Layer" class="s8" d="m157.4 453.9c-0.2 0 0-1 0.9-1.7 1-0.7 1.9-0.7 1.9-0.5 0 0.2-0.7 0.4-1.5 1-0.7 0.6-1.1 1.3-1.3 1.2z"/>
		<path id="Layer" class="s8" d="m156.8 441c-0.1 0.1-0.7-0.5-1.7-0.9-0.9-0.4-1.8-0.5-1.8-0.6 0-0.2 1-0.5 2.1 0 1.1 0.5 1.6 1.4 1.4 1.5z"/>
		<path id="Layer" class="s1" d="m187.2 311.1c0 0 6.6 64.1 4.6 71.5-1.9 7.5-33.6 64.1-33.6 64.1l-21.9-12.1c0 0 26.6-51.4 26.3-53.5-0.4-2.2 0.7-8.4 0.7-8.4l-14.7-49.1 2.9-21.2 26-2.6z"/>
		<path id="Layer" class="s1" d="m173.1 311.6l25 1.4c0 0 34.9 56.7 35.5 64.1 0.6 7.3-14 65.3-14 65.3l-24.5-2.2 14-58q-0.4-0.2-0.8-0.4-0.4-0.2-0.8-0.5-0.4-0.2-0.7-0.5-0.4-0.4-0.7-0.7-0.1-0.3-0.2-0.6-0.1-0.4-0.2-0.7 0-0.3 0-0.6 0-0.3 0-0.7c0 0-35.2-40.2-35.9-42.2z"/>
		<path id="Layer" class="s2" d="m187.8 325.1q0 0.2 0 0.4 0 0.2-0.1 0.4 0 0.2 0 0.4-0.1 0.2-0.1 0.4-0.1 0.6-0.1 1.1-0.1 0.6-0.1 1.1 0 0.6 0 1.1 0 0.6 0.1 1.1 0.1 1.8 0.3 3.6 0.2 1.8 0.5 3.6 0.3 1.8 0.6 3.6 0.3 1.8 0.7 3.5 0.4 1.8 0.7 3.6 0.3 1.8 0.6 3.6 0.3 1.8 0.5 3.6 0.2 1.8 0.4 3.7 0 0.5 0 1.1 0 0.5 0 1.1 0 0.5 0 1.1-0.1 0.5-0.1 1.1 0 0.2-0.1 0.4 0 0.2 0 0.4-0.1 0.2-0.1 0.4-0.1 0.2-0.2 0.4 0.1-0.2 0.1-0.4 0-0.2 0-0.4 0-0.2 0-0.4 0.1-0.2 0.1-0.4 0-0.6 0-1.1 0-0.6 0-1.1 0-0.6 0-1.1 0-0.6-0.1-1.1c-0.3-3.7-1.3-8.8-2.3-14.4q-0.4-1.7-0.7-3.5-0.3-1.8-0.6-3.6-0.2-1.8-0.4-3.7-0.2-1.8-0.3-3.6 0-0.5 0-1.1 0-0.6 0-1.1 0-0.6 0.1-1.1 0.1-0.6 0.2-1.1 0-0.2 0.1-0.4 0-0.2 0.1-0.4 0-0.2 0.1-0.4 0.1-0.2 0.1-0.4z"/>
		<path id="Layer" class="s5" d="m240.1 226.4c0 0 4.5-7.2 8.6-7.8 4-0.7 11.1 0 11.1 0l-3.8 15.4-8.5 1.5z"/>
		<path id="Layer" class="s2" d="m174.8 238.1l31.7 2 32.4-15.1 10.1 12.3-39.8 21.1-22 2.7-12.4-23z"/>
		<path id="Layer" class="s4" d="m273.4 270.9l-25.1-4.4-5.7 32.4-34.8-6.1 5.7-32.4-83-14.5 4.2-24 89.8-85.1 37.4 6.6-83.6 80.9 41.4 7.2 5-28.8 33.7 5.9-5 28.8 25.1 4.4z"/>
		<g id="Layer" style="opacity: .3">
			<path id="Layer" class="s3" d="m273.4 270.9l-25.1-4.4-5.7 32.4-34.8-6.1 5.7-32.4-83-14.5 4.2-24 89.8-85.1 37.4 6.6-83.6 80.9 41.4 7.2 5-28.8 33.7 5.9-5 28.8 25.1 4.4z"/>
		</g>
		<path id="Layer" class="s4" d="m264.9 269.7l-25.1-4.4-5.7 32.4-34.8-6.1 5.7-32.4-83-14.5 4.2-24 89.8-85.1 37.4 6.6-83.6 80.9 41.4 7.2 5-28.8 33.7 5.9-5.1 28.8 25.1 4.4z"/>
		<g id="Layer" style="opacity: .3">
			<path id="Layer" class="s3" d="m186.1 255.2l-17.2-17.9 0.9-12.8 14.2-6.5 8.4 6.5-16.1 7.1q0.8 1.2 1.6 2.4 0.8 1.1 1.6 2.3 0.9 1.2 1.7 2.3 0.9 1.1 1.8 2.2c3.2 3.8 6.9 13.6 6.9 13.6z"/>
		</g>
		<path id="Layer" class="s1" d="m178.1 189.6q1.2 1 2.1 2.3 1 1.3 1.6 2.8 0.6 1.4 0.8 3 0.3 1.6 0.1 3.2c-0.1 2-0.8 4.3 0.5 5.9 1.3 1.6 3.9 1.6 5.1 3.2 1.5 1.9 0.2 4.6 0.7 7q0.2 0.8 0.6 1.5 0.5 0.7 1.2 1.2 0.7 0.5 1.5 0.7 0.8 0.3 1.7 0.2-1 0.8-2.1 1.4-1.1 0.7-2.3 1.1-1.2 0.5-2.4 0.8-1.2 0.3-2.5 0.5l-2.4-3.4q0.3 0.5 0.4 1.1 0.1 0.5 0.1 1.1 0 0.5-0.3 1.1-0.2 0.5-0.6 0.9-0.4 0.4-0.8 0.8-0.5 0.3-1 0.6-0.5 0.3-1 0.5-0.5 0.2-1.1 0.3-2.6 0.7-5.3 0.9-2.7 0.1-5.4-0.4-2.6-0.5-5.1-1.5-2.5-1.1-4.6-2.7"/>
		<path id="Layer" class="s1" d="m139.3 206.9q0.3-0.5 0.5-1.1 0.3-0.6 0.5-1.1 0.2-0.6 0.4-1.2 0.2-0.6 0.4-1.2c0.8-3.4-0.8-7.3 1-10.4 1.2-2.2 3.8-3.3 6.2-4 2.4-0.6 5-1.2 6.8-3 1.4-1.2 2.2-3 3.5-4.3 1.9-1.8 4.7-2.4 7.3-2.5q1-0.1 2.1 0 1 0 2 0.2 1 0.2 1.9 0.5 1 0.3 1.9 0.8 0.9 0.4 1.7 1 0.8 0.7 1.4 1.5 0.7 0.8 1.1 1.7 0.4 1 0.6 2 0 0.5 0 0.9 0.1 0.5 0.1 1 0 0.5 0.1 1 0.1 0.5 0.2 1c0.4 1.4 1.5 2.5 2.1 3.8q0.5 1 0.6 2.2 0.1 1.1-0.1 2.2-0.3 1.2-0.9 2.1-0.6 1-1.5 1.8l-19 23.5c-3.9 1.4-13.3-0.5-16.3-3.5-2.9-2.9-5.9-10.9-4.6-14.9z"/>
		<path id="Layer" class="s5" d="m179.7 216.8c-0.9 9.2-7.8 10.8-7.8 10.7 0 0 0 1.3 0.2 4.7l0.2 6.4c-0.3 2.6 1.9 9.5-0.3 10.3-9.8 3.7-19-9.1-21-12.1q0-0.1 0-0.2 0-0.1 0-0.1 0.1-0.1 0.2-0.1 0 0 0.1 0c0.8 0.4 2.1-0.6 2.1-0.6l-4.2-39.5q0-0.6 0.1-1.2 0.2-0.5 0.6-1 0.4-0.5 0.9-0.8 0.5-0.3 1.1-0.4l16.8-5.3c5.4-0.9 9.4 5.6 10.1 11.1 0.7 6 1.4 13.5 0.9 18z"/>
		<path id="Layer" class="s1" d="m177.4 207q0.1 0.2 0 0.4-0.1 0.3-0.2 0.4-0.2 0.2-0.4 0.3-0.2 0.1-0.4 0.1-0.2 0.1-0.5 0-0.2 0-0.4-0.2-0.1-0.1-0.3-0.3-0.1-0.2-0.1-0.5 0-0.2 0.1-0.4 0-0.2 0.2-0.4 0.1-0.2 0.3-0.3 0.3-0.1 0.5-0.1 0.2 0 0.4 0 0.2 0.1 0.4 0.2 0.2 0.2 0.3 0.4 0.1 0.2 0.1 0.4z"/>
		<path id="Layer" class="s1" d="m166.1 207.5q0 0.3-0.1 0.5-0.1 0.2-0.2 0.4-0.1 0.1-0.3 0.2-0.3 0.1-0.5 0.2-0.2 0-0.4-0.1-0.2 0-0.4-0.2-0.2-0.1-0.3-0.3-0.1-0.2-0.2-0.4 0-0.3 0.1-0.5 0.1-0.2 0.2-0.4 0.2-0.1 0.4-0.3 0.2-0.1 0.4-0.1 0.2 0 0.5 0 0.2 0.1 0.4 0.3 0.1 0.1 0.3 0.3 0.1 0.2 0.1 0.4z"/>
		<path id="Layer" class="s1" d="m177.9 203.2c-0.1 0.2-1.2-0.5-2.5-0.3-1.4 0.1-2.3 1.1-2.5 0.9-0.1-0.2 0-0.5 0.4-0.9q0.2-0.2 0.5-0.4 0.2-0.1 0.4-0.2 0.3-0.2 0.5-0.3 0.3 0 0.6-0.1 0.2 0 0.5 0 0.3 0 0.5 0.1 0.3 0.1 0.6 0.2 0.2 0.1 0.4 0.2c0.5 0.4 0.7 0.7 0.6 0.8z"/>
		<path id="Layer" class="s1" d="m165.7 204c-0.2 0.2-1.2-0.6-2.7-0.6-1.4 0.1-2.5 0.9-2.7 0.7-0.1-0.2 0.1-0.4 0.6-0.8q0.2-0.2 0.5-0.3 0.2-0.2 0.5-0.3 0.3-0.1 0.5-0.1 0.3-0.1 0.6-0.1 0.3 0 0.6 0.1 0.3 0 0.5 0.1 0.3 0.1 0.6 0.2 0.2 0.1 0.5 0.3c0.4 0.3 0.6 0.7 0.5 0.8z"/>
		<path id="Layer" class="s1" d="m170.1 212.7q0.3-0.1 0.5-0.2 0.3-0.1 0.5-0.1 0.3-0.1 0.5-0.1 0.3-0.1 0.5-0.1c0.3-0.1 0.6-0.2 0.7-0.4q0-0.1 0-0.2 0-0.1-0.1-0.3 0-0.1-0.1-0.2 0-0.1-0.1-0.2l-1.1-2.4q-0.3-0.8-0.7-1.5-0.3-0.8-0.6-1.6-0.4-0.8-0.6-1.6-0.3-0.8-0.6-1.6 0.5 0.7 0.9 1.5 0.4 0.7 0.7 1.5 0.4 0.7 0.8 1.5 0.3 0.8 0.6 1.6l1.1 2.4q0.1 0.1 0.1 0.3 0.1 0.1 0.1 0.3 0 0.2 0 0.3 0 0.2 0 0.3 0 0.1-0.1 0.2 0 0.1-0.1 0.1 0 0.1-0.1 0.2-0.1 0-0.2 0-0.1 0.1-0.1 0.1-0.1 0-0.2 0 0 0-0.1 0-0.1 0-0.1 0.1-0.3 0-0.5 0-0.3 0.1-0.6 0.1-0.2 0-0.5 0-0.2 0-0.5 0z"/>
		<path id="Layer" class="s6" d="m171.9 229.8c-9 1.4-13.4-5.3-12.5-4.8q1.5 0.7 3 1.2 1.5 0.6 3.1 0.9 1.5 0.3 3.1 0.4 1.6 0.1 3.2 0z"/>
		<path id="Layer" class="s6" d="m166.2 216.3q0.1-0.2 0.1-0.3 0.1-0.1 0.2-0.2 0.1-0.1 0.2-0.1 0.1-0.1 0.2-0.2 0.1 0 0.2-0.1 0.2 0 0.3 0 0.1 0 0.3 0 0.1 0 0.3 0 0.2 0.1 0.4 0.1 0.1 0.1 0.3 0.2 0.2 0.1 0.4 0.2 0.1 0.1 0.3 0.3 0.1 0.1 0.2 0.3 0.1 0.2 0.1 0.4 0.1 0.2 0.1 0.4 0 0.2-0.1 0.4c-0.1 0.5-0.9 0.8-1.5 0.9q-0.2 0-0.4 0-0.2 0-0.4-0.1-0.2 0-0.4-0.1-0.2-0.1-0.3-0.2-0.2-0.1-0.3-0.2-0.2-0.1-0.3-0.2-0.1-0.1-0.1-0.3-0.1-0.1-0.1-0.3 0-0.1 0-0.3 0-0.1 0.1-0.2 0-0.1 0.1-0.2 0-0.1 0.1-0.2z"/>
		<path id="Layer" class="s1" d="m166.5 214.5c0.2 0 0.3 1.3 1.5 2.2 1.2 0.9 2.7 0.7 2.7 0.9 0 0.2-0.3 0.3-0.9 0.3q-0.3 0.1-0.6 0-0.3 0-0.6-0.1-0.3-0.1-0.6-0.2-0.2-0.1-0.5-0.3-0.2-0.2-0.4-0.4-0.2-0.2-0.3-0.4-0.2-0.3-0.3-0.5-0.1-0.3-0.1-0.6c-0.1-0.6 0-0.9 0.1-0.9z"/>
		<path id="Layer" class="s1" d="m165.7 200c-0.1 0.3-1.4 0.3-2.8 0.5-1.5 0.3-2.7 0.8-2.9 0.5-0.1-0.2 0.1-0.5 0.6-0.9q0.2-0.1 0.4-0.3 0.3-0.1 0.5-0.2 0.3-0.2 0.6-0.2 0.3-0.1 0.5-0.1 0.3-0.1 0.6-0.1 0.3 0 0.6 0 0.3 0 0.5 0.1 0.3 0 0.6 0.1c0.5 0.2 0.8 0.4 0.8 0.6z"/>
		<path id="Layer" class="s1" d="m177 197.8c-0.2 0.3-1.2 0.1-2.4 0.2-1.2 0-2.2 0.3-2.5 0-0.2-0.4 0-0.5 0.5-0.8q0.2-0.1 0.4-0.2 0.3-0.1 0.5-0.2 0.3-0.1 0.6-0.1 0.2 0 0.5-0.1 0.2 0 0.5 0.1 0.3 0 0.5 0 0.3 0.1 0.5 0.2 0.3 0.1 0.5 0.2c0.3 0.3 0.5 0.6 0.4 0.7z"/>
		<path id="Layer" class="s1" d="m148.2 194.1q0.4-0.4 0.8-0.8 0.4-0.4 0.9-0.7 0.5-0.3 1-0.5 0.6-0.3 1.1-0.4 2.4-0.9 4.8-1.6 2.4-0.7 4.8-1.3 2.4-0.5 4.9-0.9 2.5-0.5 4.9-0.7c0.8 1.3 0 3.2-1.2 4.1q-0.5 0.3-1.1 0.6-0.5 0.3-1 0.5-0.6 0.2-1.1 0.4-0.6 0.2-1.2 0.4-0.6 0.1-1.1 0.4-0.5 0.2-1 0.6-0.5 0.4-0.9 0.8-0.4 0.5-0.6 1c-0.7 1.5-0.2 3.4-0.8 5-1 2.7-4.9 3.5-5.9 6.2-0.8 2.1 0.4 4.3 0.6 6.5 0.2 1.1 0.1 2.2-0.3 3.3-0.3 1-0.9 2-1.6 2.8-0.8 0.9-1.7 1.5-2.7 2-1 0.4-2.1 0.6-3.2 0.6q-0.5-11.7-0.9-23.5c-0.1-1.6-0.1-3.4 0.8-4.8z"/>
		<path id="Layer" class="s1" d="m132 213.6c1.3-1.1 2.8-2 3.4-3.6 0.7-2.3-1-5 0.2-7.1 1.1-1.9 4.3-1.8 5.3-3.7 0.9-1.5 0-2.9 0.3-4.2q0.2-0.5 0.6-1 0.4-0.4 0.8-0.7 0.5-0.3 1.1-0.5 0.6-0.1 1.1-0.1l10.4 15.7c0.9 5.2 1.8 8 0.7 11q-0.3 0.6-0.6 1.2-0.2 0.6-0.4 1.3-0.3 0.6-0.4 1.2-0.2 0.7-0.4 1.3-0.1 0.7-0.1 1.3 0 0.7 0.2 1.3 0.3 0.7 0.6 1.2 0.4 0.6 0.9 1c-6.4 0.4-12.4-3.1-17.8-6.4l-5.8-3.6q-0.2-0.1-0.5-0.2-0.2-0.2-0.4-0.3-0.2-0.2-0.4-0.4-0.1-0.2-0.3-0.4c-0.8-1.4 0.3-3.2 1.5-4.3z"/>
		<path id="Layer" class="s2" d="m138.5 221.4q0.3 0 0.6 0 0.4 0 0.7-0.1 0.3 0 0.7-0.1 0.4-0.1 0.7-0.2 0.4-0.1 0.7-0.3 0.4-0.2 0.7-0.4 0.3-0.3 0.6-0.5 0.6-0.6 1-1.3 0.4-0.7 0.6-1.5 0.2-0.8 0.2-1.6 0-0.8-0.2-1.5-0.1-0.4-0.2-0.7-0.2-0.3-0.3-0.5-0.1-0.3-0.3-0.6-0.2-0.3-0.3-0.6-0.2-0.3-0.4-0.6-0.2-0.3-0.4-0.6-0.1-0.3-0.2-0.7-0.2-0.3-0.3-0.6-0.1-0.4-0.1-0.8-0.1-0.4 0-0.8 0.1-0.4 0.2-0.7 0.1-0.4 0.4-0.7 0.1-0.2 0.3-0.3 0.1-0.2 0.3-0.3 0.1-0.1 0.3-0.2 0.2-0.1 0.4-0.2c0.5-0.2 1-0.3 1.5-0.5q0.2 0 0.3-0.1 0.2-0.1 0.4-0.2 0.1-0.1 0.3-0.3 0.1-0.1 0.2-0.2 0.1-0.2 0.2-0.4 0.1-0.2 0.1-0.3 0.1-0.2 0.1-0.4 0-0.2 0-0.4 0-0.4-0.1-0.8-0.1-0.4-0.1-0.9-0.1-0.4-0.2-0.8-0.1-0.4-0.2-0.8-0.1-0.2-0.1-0.4 0-0.3 0-0.5 0-0.2 0-0.4 0-0.3 0.1-0.5 0-0.2 0.1-0.4 0.1-0.2 0.3-0.4 0.1-0.2 0.3-0.4 0.2-0.1 0.3-0.3 0.4-0.2 0.9-0.4 0.4-0.1 0.8-0.2 0.4-0.1 0.9-0.2 0.4 0 0.9 0 0.4 0 0.8-0.1 0.4 0 0.8-0.2 0.4-0.1 0.8-0.2 0.4-0.2 0.7-0.4 0.4-0.2 0.7-0.4 0.3-0.3 0.6-0.6 0.3-0.2 0.5-0.6 0.2-0.3 0.4-0.6 0.2-0.4 0.3-0.7 0.2-0.4 0.3-0.8 0.1-0.3 0.2-0.7 0-0.4 0.1-0.8 0-0.3 0.1-0.7 0.1-0.4 0.2-0.7 0.1-0.4 0.2-0.8 0.1-0.3 0.2-0.7 0.1-0.3 0.3-0.6 0.2-0.4 0.4-0.6 0.2-0.3 0.4-0.6 0.3-0.3 0.5-0.5 0.5-0.5 1.1-0.8 0.5-0.4 1.1-0.6 0.6-0.3 1.2-0.4 0.7-0.2 1.3-0.2 0.5-0.1 1.1 0 0.5 0.1 1 0.2 0.5 0.1 1 0.3 0.5 0.2 1 0.5 0.3 0.2 0.6 0.4 0.4 0.2 0.7 0.5 0.3 0.2 0.6 0.5 0.2 0.3 0.5 0.6 0.2 0.2 0.3 0.4 0.2 0.2 0.3 0.4 0.1 0.2 0.3 0.4 0.1 0.2 0.2 0.4c0.1 0.2 0.2 0.4 0.2 0.5 0 0.1 0.1 0.4 0 0.2q-0.1-0.3-0.3-0.6-0.2-0.3-0.4-0.6-0.2-0.3-0.4-0.5-0.2-0.3-0.4-0.5-0.2-0.3-0.5-0.6-0.3-0.3-0.6-0.5-0.3-0.3-0.6-0.5-0.3-0.2-0.7-0.4-1-0.5-2.1-0.7-1.1-0.3-2.3-0.1-1.1 0.1-2.1 0.6-1.1 0.5-1.9 1.2-0.3 0.3-0.5 0.5-0.2 0.3-0.4 0.6-0.2 0.3-0.3 0.6-0.2 0.3-0.3 0.6-0.2 0.3-0.3 0.7-0.1 0.3-0.2 0.7 0 0.4-0.1 0.7-0.1 0.4-0.1 0.7-0.1 0.4-0.2 0.8 0 0.4-0.2 0.8-0.1 0.4-0.2 0.8-0.1 0.3-0.3 0.7-0.2 0.4-0.5 0.7-0.2 0.3-0.5 0.6-0.3 0.3-0.6 0.6-0.4 0.3-0.7 0.5-0.4 0.2-0.8 0.4-0.4 0.1-0.8 0.2-0.4 0.2-0.9 0.2-0.4 0.1-0.8 0.1-0.5 0-0.9 0-0.4 0.1-0.8 0.2-0.4 0.1-0.8 0.2-0.4 0.2-0.8 0.4-0.2 0.1-0.3 0.2-0.2 0.2-0.3 0.3-0.1 0.2-0.2 0.4-0.1 0.2-0.1 0.4-0.1 0.2-0.1 0.4 0 0.2 0 0.4 0 0.2 0 0.4 0 0.2 0.1 0.4 0.1 0.4 0.2 0.8 0.1 0.4 0.2 0.9 0.1 0.4 0.1 0.8 0.1 0.4 0.1 0.9 0 0.2 0 0.4 0 0.2-0.1 0.4 0 0.2-0.1 0.4-0.1 0.2-0.2 0.4-0.2 0.2-0.3 0.3-0.2 0.2-0.4 0.3-0.1 0.1-0.3 0.2-0.2 0.1-0.4 0.2c-1 0.4-2.1 0.6-2.7 1.3q-0.2 0.3-0.3 0.7-0.2 0.3-0.2 0.6-0.1 0.4 0 0.7 0 0.4 0.1 0.7 0.1 0.4 0.2 0.7 0.1 0.3 0.3 0.6 0.1 0.3 0.3 0.6 0.2 0.3 0.4 0.6 0.2 0.3 0.3 0.6 0.2 0.3 0.3 0.6 0.2 0.3 0.3 0.6 0.1 0.3 0.2 0.6 0.1 0.3 0.1 0.6 0.1 0.3 0.1 0.6 0 0.4 0 0.7 0 0.3 0 0.6-0.1 0.5-0.3 1-0.1 0.5-0.4 1-0.2 0.5-0.5 0.9-0.3 0.4-0.7 0.8-0.3 0.2-0.7 0.5-0.3 0.2-0.6 0.4-0.4 0.2-0.8 0.3-0.3 0.1-0.7 0.2-0.3 0.1-0.5 0.1-0.3 0-0.5 0.1-0.3 0-0.5 0-0.3 0-0.5-0.1-0.1 0-0.2 0-0.1 0-0.2 0-0.1-0.1-0.2-0.1 0 0-0.1 0 0.3 0 0.7 0.1z"/>
		<path id="Layer" class="s1" d="m129.4 210.2q0 0.1 0 0.1 0 0.1-0.1 0.1 0 0.1 0 0.2-0.1 0.5 0.1 1 0.1 0.4 0.5 0.8 0.3 0.4 0.8 0.6 0.4 0.2 0.9 0.2 0.4 0 0.8-0.1 0.4-0.1 0.8-0.4 0.3-0.2 0.6-0.5 0.2-0.3 0.4-0.6 0.1-0.2 0.2-0.5 0.1-0.2 0.2-0.4 0-0.2 0-0.5 0.1-0.2 0.1-0.4 0-0.3-0.1-0.6 0-0.2 0-0.5-0.1-0.2-0.2-0.5 0-0.2-0.1-0.4c-0.3-0.7-0.6-1.4-0.9-2.1q-0.1-0.3-0.2-0.6-0.1-0.3-0.2-0.6-0.1-0.3-0.1-0.6 0-0.3 0-0.6-0.1-0.4 0-0.7 0-0.3 0.1-0.6 0.1-0.4 0.3-0.6 0.2-0.3 0.4-0.6 0.3-0.2 0.6-0.4 0.3-0.1 0.6-0.2 0.4-0.1 0.7-0.2 0.4 0 0.7 0 0.3 0.1 0.7 0.1 0.3 0 0.6-0.1 0.4 0 0.7 0 0.3-0.1 0.7-0.2 0.3-0.1 0.5-0.3 0.3-0.2 0.4-0.5 0.2-0.3 0.3-0.6 0.2-0.3 0.2-0.6 0-0.4 0-0.7 0-0.4 0-0.7-0.1-0.3-0.1-0.7 0-0.3-0.1-0.7-0.1-0.3-0.1-0.7 0-0.3 0.1-0.7 0-0.3 0-0.7 0.1-0.3 0.2-0.6 0.2-0.7 0.5-1.3 0.3-0.5 0.7-1.1 0.5-0.5 1-0.9 0.5-0.4 1.1-0.7 0.5-0.3 1-0.5 0.6-0.2 1.2-0.3 0.6-0.1 1.2-0.2 0.6 0 1.2 0 0.5 0 1 0 0.5 0 1-0.1 0.5 0 1-0.1 0.5-0.1 1-0.3 0.7-0.2 1.3-0.6 0.6-0.3 1.2-0.8 0.6-0.4 1.1-1 0.4-0.5 0.8-1.1 0.2-0.3 0.3-0.5 0.1-0.2 0.2-0.5 0.2-0.2 0.3-0.5 0.1-0.2 0.2-0.5-0.1 0.3-0.2 0.5-0.1 0.3-0.2 0.6-0.1 0.2-0.2 0.4-0.1 0.3-0.2 0.5-0.2 0.3-0.4 0.6-0.2 0.2-0.4 0.5-0.2 0.2-0.4 0.5-0.2 0.2-0.5 0.4-0.3 0.3-0.6 0.6-0.4 0.2-0.7 0.4-0.4 0.3-0.8 0.4-0.4 0.2-0.8 0.4-0.5 0.1-1 0.2-0.5 0.1-1 0.2-0.5 0.1-1 0.1-0.5 0-1 0-0.6 0-1.2 0.1-0.5 0-1.1 0.1-0.6 0.1-1.1 0.3-0.6 0.2-1.1 0.5-0.5 0.3-1 0.7-0.5 0.4-0.9 0.9-0.4 0.5-0.6 1-0.3 0.6-0.5 1.2-0.1 0.3-0.2 0.6 0 0.4-0.1 0.7 0 0.3 0 0.7 0 0.3 0.1 0.6 0 0.4 0.1 0.7 0 0.4 0.1 0.7 0 0.4 0 0.8 0 0.3 0 0.7-0.1 0.2-0.1 0.3 0 0.2-0.1 0.4-0.1 0.2-0.2 0.3 0 0.2-0.1 0.4-0.1 0.1-0.3 0.3-0.1 0.1-0.2 0.2-0.2 0.2-0.4 0.2-0.1 0.1-0.3 0.2-0.3 0.1-0.7 0.2-0.3 0-0.7 0-0.3 0.1-0.7 0.1-0.3 0-0.7-0.1-0.3 0-0.6 0-0.3 0.1-0.6 0.2-0.3 0-0.6 0.2-0.3 0.1-0.5 0.3-0.2 0.2-0.4 0.5-0.1 0.3-0.2 0.5-0.1 0.3-0.2 0.6 0 0.3 0 0.6c0 1.6 0.9 3 1.4 4.4q0.1 0.2 0.1 0.5 0.1 0.3 0.2 0.5 0 0.3 0 0.6 0.1 0.2 0.1 0.5 0 0.3-0.1 0.5 0 0.3 0 0.5-0.1 0.2-0.2 0.5-0.1 0.2-0.2 0.4-0.2 0.4-0.5 0.8-0.3 0.3-0.7 0.5-0.4 0.2-0.8 0.4-0.4 0.1-0.8 0.1-0.2 0-0.4-0.1-0.2 0-0.4 0-0.1-0.1-0.3-0.2-0.2 0-0.3-0.1-0.1-0.1-0.2-0.2-0.2-0.1-0.3-0.2-0.1-0.1-0.2-0.2 0-0.2-0.1-0.3-0.1-0.2-0.2-0.4 0-0.2-0.1-0.4 0-0.2 0-0.4 0-0.2 0-0.4 0.1-0.1 0.1-0.1 0-0.1 0-0.2 0.1 0 0.1-0.1 0-0.1 0.1-0.1-0.1 0-0.1 0.1z"/>
		<path id="Layer" class="s1" d="m196.8 215.3q0 0.1 0.1 0.1 0 0.1 0 0.1 0 0.1 0 0.1 0 0.2 0.1 0.3 0 0.2 0 0.4 0 0.1-0.1 0.3 0 0.2-0.1 0.3-0.1 0.3-0.2 0.5-0.1 0.2-0.3 0.4-0.2 0.2-0.4 0.4-0.2 0.1-0.5 0.2-0.3 0.1-0.7 0.1-0.4 0-0.7-0.1-0.3-0.1-0.6-0.3-0.3-0.2-0.6-0.4-0.1-0.2-0.2-0.3-0.2-0.2-0.2-0.4-0.1-0.2-0.2-0.4 0-0.2 0-0.4 0-0.2 0-0.5 0-0.2 0-0.4 0.1-0.2 0.1-0.4 0.1-0.2 0.2-0.5c0.4-1.1 1-2.2 1-3.5q-0.1-0.5-0.2-1-0.1-0.5-0.4-0.9-0.2-0.5-0.5-0.8-0.3-0.4-0.7-0.8-0.2-0.1-0.4-0.3-0.3-0.1-0.5-0.2-0.2-0.2-0.5-0.3-0.2-0.1-0.5-0.2-0.2 0-0.5-0.1-0.3-0.1-0.5-0.1-0.3 0-0.6-0.1-0.3 0-0.5 0-0.3 0-0.6 0-0.3-0.1-0.6-0.1-0.3 0-0.5-0.1-0.3 0-0.6-0.1-0.3-0.1-0.6-0.2-0.2-0.1-0.5-0.3-0.2-0.1-0.4-0.3-0.2-0.2-0.4-0.5-0.2-0.2-0.3-0.4-0.1-0.3-0.2-0.6-0.1-0.2-0.1-0.5-0.1-0.3-0.1-0.5 0-0.3 0-0.6 0.1-0.2 0.1-0.5 0-0.2 0.1-0.5 0-0.2 0.1-0.5 0.1-0.4 0.2-0.9 0.1-0.4 0.2-0.9 0.1-0.5 0.2-0.9 0-0.5 0-1 0-0.4 0-0.7-0.1-0.4-0.2-0.8-0.2-0.4-0.3-0.8-0.2-0.3-0.5-0.7-0.2-0.2-0.4-0.5-0.2-0.2-0.5-0.4-0.2-0.3-0.5-0.5-0.2-0.2-0.5-0.3-0.2-0.2-0.4-0.3-0.2-0.2-0.4-0.3-0.2-0.2-0.4-0.3-0.2-0.2-0.4-0.4-0.2-0.1-0.3-0.2-0.1-0.1-0.2-0.3-0.1-0.1-0.2-0.2 0-0.2-0.1-0.3 0-0.1 0-0.1-0.1 0-0.1-0.1 0 0 0-0.1 0 0 0 0c0-0.2-0.1-0.3 0-0.2q0.1 0.2 0.2 0.4 0.1 0.2 0.2 0.4 0.1 0.2 0.3 0.3 0.1 0.2 0.3 0.3 0.2 0.2 0.4 0.3 0.2 0.2 0.4 0.3 0.2 0.2 0.4 0.3 0.2 0.2 0.4 0.3 0.3 0.2 0.6 0.4 0.3 0.2 0.5 0.4 0.3 0.2 0.5 0.5 0.2 0.2 0.5 0.5 0.2 0.3 0.4 0.7 0.2 0.4 0.3 0.8 0.2 0.4 0.2 0.8 0.1 0.4 0.1 0.8 0 0.5 0 1-0.1 0.4-0.2 0.9 0 0.5-0.2 0.9-0.1 0.5-0.2 0.9-0.1 0.3-0.1 0.5-0.1 0.3-0.1 0.5 0 0.3 0 0.5 0 0.3 0 0.5 0 0.3 0 0.6 0.1 0.2 0.1 0.4 0.1 0.3 0.2 0.5 0.1 0.2 0.3 0.4 0.1 0.3 0.3 0.4 0.2 0.2 0.4 0.4 0.2 0.1 0.5 0.2 0.2 0.1 0.5 0.2 0.2 0 0.5 0.1 0.3 0 0.6 0 0.2 0.1 0.5 0.1 0.3 0 0.6 0 0.3 0 0.6 0.1 0.2 0 0.5 0 0.3 0.1 0.6 0.2 0.3 0 0.5 0.1 0.3 0.1 0.6 0.2 0.3 0.1 0.5 0.2 0.3 0.2 0.5 0.3 0.2 0.2 0.4 0.4 0.5 0.3 0.8 0.8 0.3 0.4 0.6 0.9 0.2 0.4 0.4 1 0.1 0.5 0.1 1 0 0.5-0.1 1-0.1 0.4-0.2 0.9-0.1 0.5-0.3 0.9-0.2 0.5-0.4 0.9-0.1 0.2-0.1 0.4-0.1 0.2-0.1 0.4 0 0.2 0 0.4-0.1 0.2-0.1 0.4 0.1 0.2 0.1 0.4 0 0.1 0.1 0.3 0.1 0.2 0.2 0.3 0 0.2 0.2 0.3 0.2 0.3 0.5 0.5 0.2 0.1 0.5 0.2 0.3 0.1 0.7 0.1 0.3 0 0.6-0.1 0.2 0 0.4-0.2 0.3-0.1 0.4-0.3 0.2-0.2 0.3-0.4 0.2-0.2 0.3-0.4 0-0.2 0.1-0.4 0-0.2 0-0.4 0-0.2 0-0.5-0.1-0.2-0.1-0.4 0 0.1 0 0.1z"/>
		<path id="Layer" class="s5" d="m262.1 217.8c0.9 1.4-1.9 3-1.9 3 0.8 0.4 0.4 3-0.8 3.2 0.5 0.3 0.9 0.3 1.2 0.9q0.1 0.2 0.2 0.4 0 0.3 0 0.5 0 0.2 0 0.5-0.1 0.2-0.2 0.4-0.1 0.2-0.3 0.4-0.1 0.2-0.3 0.3-0.3 0.1-0.5 0.1-0.2 0-0.5 0 0.3 0.3 0.4 0.6 0.2 0.3 0.3 0.7 0 0.3 0 0.7 0 0.4-0.2 0.7-0.1 0.2-0.2 0.4-0.2 0.2-0.3 0.3-0.2 0.2-0.4 0.3-0.2 0.1-0.4 0.2-0.1 0-0.2 0.1-0.1 0-0.2 0-0.1 0-0.2 0.1-0.1 0-0.2 0-0.1 0-0.1 0-0.1 0-0.1 0 0 0-0.1 0 0 0-0.1 0 0 0 0 0 0 0 0-0.1-0.1 0-0.1 0 0 0 0 0c-0.2-0.2-0.3-0.4-0.5-0.5l-0.2-0.1q-0.2-0.1-0.3-0.2-0.2-0.1-0.3-0.1-0.1-0.1-0.3-0.2-0.1 0-0.3-0.1-0.1 0-0.1 0-0.1 0-0.2 0 0 0-0.1-0.1-0.1 0-0.2 0 0 0 0-0.1-0.1 0-0.1 0-0.1-0.1-0.1-0.1 0 0-0.1 0-0.2-0.2-0.5-0.3-0.3-0.1-0.6-0.2-0.3-0.1-0.6-0.2-0.3-0.1-0.6-0.1-0.3 0-0.6-0.1-0.4-0.1-0.7-0.2-0.3-0.1-0.6-0.3-0.3-0.2-0.5-0.4-0.3-0.2-0.4-0.5-0.2-0.3-0.2-0.6 0-0.4 0.1-0.7 0.1-0.3 0.3-0.6-0.2 0-0.4-0.1-0.2-0.1-0.4-0.2-0.1-0.2-0.2-0.4-0.1-0.2-0.1-0.4 0-0.2 0.1-0.4 0.1-0.2 0.2-0.4 0.1-0.2 0.2-0.4 0.2-0.1 0.4-0.2 0.1-0.1 0.3-0.2 0.2-0.1 0.4-0.1 0.2-0.1 0.4-0.1 0.3-0.1 0.5-0.1-0.3 0-0.5-0.2-0.2-0.1-0.3-0.3-0.1-0.2-0.2-0.5 0-0.2 0-0.5 0.1-0.2 0.2-0.4 0.2-0.3 0.3-0.4 0.2-0.2 0.4-0.4 0.2-0.1 0.5-0.2 0.2 0 0.5-0.1 0.2 0 0.5 0 0.2-0.1 0.5 0 0.2 0 0.5 0c0.6 0.1 3.4 0.3 4.1 0.3l0.5-1.8v-0.2c1.2-0.3 1.6-0.5 2.6-0.7 0.8-0.1 1.6-0.1 1.9 0.4z"/>
		<path id="Layer" class="s5" d="m257.4 234q-0.1 0.2-0.1 0.4-0.1 0.2-0.2 0.4-0.1 0.2-0.2 0.3-0.2 0.2-0.4 0.3-0.3 0.1-0.6 0.1-0.3 0-0.6 0-0.3 0-0.6 0-0.3-0.1-0.6-0.2c-0.2 0 0.3-1.9 0.3-1.9l0.1-0.4c-0.2-0.4-1-0.5-1.4-0.8q-0.2-0.1-0.3-0.4-0.2-0.2-0.3-0.5 0-0.3 0.1-0.5 0-0.3 0.2-0.6 0.1-0.2 0.4-0.4 0.2-0.1 0.5-0.2 0.2-0.1 0.5-0.2 0.3 0 0.6 0.1 0.2 0 0.5 0.1 0.3 0.1 0.5 0.3 0.2 0.1 0.4 0.3 0.2 0.2 0.4 0.5 0.3 0.3 0.5 0.7 0.1 0.4 0.2 0.9 0.1 0.4 0.1 0.8 0.1 0.5 0 0.9z"/>
		<path id="Layer" class="s6" d="m258 227.5q-0.7-0.1-1.3-0.1-0.6-0.1-1.3-0.2-0.6-0.1-1.2-0.3-0.6 0-1.3-0.2-0.6-0.1-1.2-0.2-0.7-0.1-1.3-0.3-0.6-0.2-1.2-0.4 1.3 0.1 2.5 0.2 1.3 0.2 2.6 0.4 1.2 0.2 2.5 0.5 1.2 0.3 2.4 0.6-0.6 0-1.2 0z"/>
		<path id="Layer" class="s6" d="m258.4 223.9q-0.6-0.1-1.2-0.1-0.5-0.1-1.1-0.2-0.6-0.1-1.1-0.2-0.6 0-1.2-0.1-0.6-0.1-1.1-0.1-0.6-0.1-1.2-0.2-0.5-0.1-1.1-0.2 0.6-0.1 1.2-0.1 0.5-0.1 1.1-0.1 0.6 0.1 1.2 0.1 0.6 0.1 1.1 0.2 0.6 0 1.2 0.1 0.6 0.1 1.1 0.3 0.6 0.1 1.1 0.3 0.6 0.2 1.1 0.4-0.5 0-1.1-0.1z"/>
		<path id="Layer" class="s6" d="m258.9 220.6q-0.5-0.1-1-0.1-0.5 0-0.9-0.1-0.5 0-1-0.1-0.5 0-0.9-0.1-0.5 0-1-0.1-0.5-0.1-0.9-0.2-0.5-0.1-0.9-0.2 0.4-0.1 0.9-0.1 0.5 0 1 0 0.5 0 0.9 0.1 0.5 0 1 0.1 0.5 0 0.9 0 0.5 0.1 1 0.2 0.5 0.1 0.9 0.2 0.5 0.2 0.9 0.4-0.5 0-0.9 0z"/>
		<path id="Layer" class="s6" d="m257 232q-0.1-0.2-0.2-0.4-0.2-0.2-0.3-0.4-0.2-0.2-0.4-0.3-0.1-0.2-0.4-0.3-0.2-0.1-0.4-0.2-0.2-0.2-0.4-0.3-0.2-0.1-0.5-0.2-0.2-0.1-0.4-0.2c-0.5-0.1-0.7 0.1-0.8 0 0 0 0.2-0.4 0.9-0.3q0.2 0 0.5 0.1 0.2 0.1 0.5 0.2 0.2 0.1 0.5 0.2 0.2 0.1 0.5 0.3 0.2 0.1 0.4 0.3 0.2 0.2 0.4 0.4 0.1 0.2 0.3 0.5 0.1 0.2 0.2 0.5c0.1 0.6-0.1 0.9-0.1 0.9-0.1 0-0.1-0.3-0.3-0.8z"/>
		<path id="Layer" class="s2" d="m152.4 229.9l19.7 3.3 0.5 2c4.1 6.1 16.5 17.5 19.2 29 0.6 3-0.8 18.6-0.5 20 2 10.8 11.4 32.4 11.4 32.4l-54.1 3.8c-0.5-17.6 3.1-26.3 4.5-30.8q0.2-0.8 0.3-1.5 0.1-0.8 0-1.6 0-0.8-0.2-1.5-0.2-0.8-0.6-1.5c-2.4-5.2-6.4-16.1-9.5-25.4q-0.6-1.7-1-3.5-0.3-1.7-0.5-3.5-0.2-1.8-0.2-3.6 0-1.8 0.2-3.6c0.7-5.4 4.6-7.4 10.4-12.7z"/>
		<g id="Layer" style="opacity: .3">
			<path id="Layer" class="s3" d="m191.3 284.1l1.7 6.6c0 0-27.8 3.8-31.1 2.5-3.4-1.3-10.1-15.3-10.1-15.3z"/>
		</g>
		<path id="Layer" class="s1" d="m176.1 239.6q0.1 0.1 0.2 0.2 0.2 0.1 0.3 0.2 0.1 0.1 0.2 0.2 0.1 0.1 0.2 0.2c0.6 0.6 1.4 1.4 2.3 2.5 1.8 2.1 4 5.4 6.5 8.8q0.8 1.1 1.5 2.3 0.8 1.1 1.4 2.3 0.7 1.2 1.2 2.5 0.6 1.3 1.1 2.6 0.1 0.3 0.2 0.7 0.1 0.4 0.2 0.8 0.1 0.5 0.2 0.9 0.1 0.4 0.2 0.8 0 0.1 0.1 0.3 0 0.1 0 0.3 0 0.1 0 0.3 0 0.1 0 0.3c0 0-0.3-1.7-1.3-4.3q-0.5-1.3-1.1-2.5-0.6-1.2-1.2-2.4-0.7-1.2-1.4-2.4-0.8-1.1-1.6-2.2c-2.5-3.4-4.6-6.7-6.3-8.9-0.9-1.1-1.6-2-2.1-2.5q-0.1-0.1-0.2-0.2-0.2-0.2-0.2-0.3-0.1-0.1-0.2-0.2-0.1-0.1-0.2-0.3z"/>
		<path id="Layer" class="s2" d="m158.9 251.7l10.9 20.4 38-8 1.4 17.1c0 0-44.2 9.5-48.3 7.2-4.1-2.4-14.3-17.3-20.6-29.5-7-13.7 4.7-21.5 4.7-21.5 9.6-3 13.9 14.3 13.9 14.3z"/>
		<path id="Layer" class="s5" d="m208 266.5c0 0 0.4-1.8 3.7-4q0.7-0.5 1.4-1 0.7-0.6 1.3-1.2 0.6-0.7 1.1-1.4 0.5-0.7 0.9-1.4c0.6-1 1.6-2.8 2.5-2.3 0.9 0.5 0.7 1.9 0.1 4.1-0.6 2.2-2.5 4-1.8 4.8 0.8 0.9 10.8-0.2 13.7-0.8 2.9-0.6 4.3-0.3 3.9 1.1-0.5 1.5-9.5 1.8-10.2 3.2-0.6 1.3 0.4 1 1.4 1.4 1 0.4 10.8-0.7 11 1.1 0.2 1.8-1 1.9-1 1.9 0 0 0.3 2.1-1.3 2.7-1.6 0.6-11.5-0.6-11.2 0.7 0.3 1.2 8 1.8 8.3 3.8 0.2 2-1.7 1.2-3.7 0.8q-1.2-0.3-2.3-0.5-1.2-0.3-2.4-0.5-1.2-0.1-2.4-0.3-1.1-0.1-2.3-0.2c-3.4 0-9.7-0.6-9.7-0.6z"/>
		<path id="Layer" class="s4" d="m236.1 272.2q-0.8 0.1-1.6 0.1-0.9 0-1.7 0-0.8 0-1.6 0-0.9 0-1.7-0.1-0.8 0-1.7 0-0.8-0.1-1.6-0.1-0.8-0.1-1.7-0.2-0.8-0.1-1.6-0.3 0.8 0 1.6 0 0.9-0.1 1.7-0.1 0.8 0 1.7 0.1 0.8 0 1.6 0 0.9 0.1 1.7 0.1 0.8 0 1.6 0.1 0.9 0.1 1.7 0.2 0.8 0.1 1.6 0.2z"/>
		<path id="Layer" class="s1" d="m167 277.9q0-0.4 0-0.8 0.1-0.4 0.2-0.8 0.1-0.4 0.2-0.8 0.2-0.4 0.4-0.7 0.2-0.4 0.4-0.7 0.2-0.4 0.5-0.7 0.3-0.3 0.6-0.5 0.3-0.3 0.7-0.5c0.1 0.1-0.9 1.1-1.7 2.6-0.8 1.5-1.1 2.9-1.3 2.9z"/>
		<path id="Layer" class="s1" d="m156.6 247.7q0 0 0.1 0.1 0 0 0.1 0.1 0 0 0 0.1 0.1 0 0.1 0.1 0.3 0.4 0.7 1.2c0.7 1.1 1.6 2.7 2.8 4.8 2.3 4.2 5.6 10.3 9.6 17.9l-0.2-0.1 38-8.1h0.3v0.2c0.4 5.5 0.9 11.2 1.3 17v0.1 0.3h-0.2c-11.3 2.4-22.1 4.6-32 6.1q-3.7 0.6-7.2 1-0.9 0.1-1.7 0.2-0.9 0.1-1.8 0.1-0.8 0.1-1.7 0.1-0.9 0.1-1.7 0.1-0.2 0-0.5-0.1-0.2 0-0.4 0-0.2 0-0.4-0.1-0.2 0-0.4 0-0.1 0-0.2-0.1-0.1 0-0.2 0-0.1-0.1-0.2-0.1-0.1-0.1-0.2-0.1l-0.6-0.5q-0.2-0.1-0.3-0.2-0.2-0.2-0.3-0.3-0.2-0.1-0.3-0.3-0.2-0.1-0.3-0.3-0.2-0.1-0.3-0.2-0.1-0.2-0.3-0.3-0.1-0.2-0.3-0.3-0.1-0.1-0.2-0.3c-0.7-0.8-1.4-1.5-2-2.3-0.5-0.8-1.1-1.6-1.7-2.4-4.4-6.2-7.4-11.5-9.5-15.2-1-1.8-1.8-3.2-2.3-4.2q-0.4-0.7-0.6-1.1-0.1-0.1-0.1-0.1 0-0.1 0-0.1-0.1-0.1-0.1-0.1 0-0.1 0-0.1 0 0 0 0 0.1 0.1 0.1 0.1 0 0.1 0.1 0.1 0 0.1 0 0.1l0.6 1.1 2.5 4.2c2.1 3.7 5.2 9 9.6 15.1q0.8 1.2 1.7 2.3 1 1.2 2 2.3 0.1 0.2 0.2 0.3 0.2 0.2 0.3 0.3 0.1 0.1 0.3 0.3 0.1 0.1 0.3 0.2 0.1 0.2 0.2 0.3 0.2 0.1 0.3 0.3 0.2 0.1 0.3 0.2 0.2 0.1 0.4 0.2l0.6 0.5q0 0 0.1 0.1 0 0 0 0 0.1 0 0.1 0 0.1 0.1 0.1 0.1 0.1 0 0.1 0 0 0 0.1 0 0 0.1 0.1 0.1 0 0 0.1 0 0.2 0 0.4 0 0.2 0.1 0.4 0.1 0.2 0 0.4 0 0.2 0 0.4 0.1 0.8-0.1 1.7-0.1 0.8 0 1.7-0.1 0.8 0 1.7-0.1 0.9-0.1 1.7-0.2 3.5-0.5 7.2-1c9.9-1.6 20.7-3.7 32-6.2l-0.2 0.3v-0.1c-0.5-5.8-1-11.5-1.4-17l0.3 0.3-38 7.9h-0.1l-0.1-0.1c-3.9-7.6-7.2-13.7-9.5-17.9-1.1-2.1-2-3.8-2.6-4.9l-0.7-1.3z"/>
	</g>
</svg>